# 3ds Max Wavefront OBJ Exporter v0.97b - (c)2007 guruware
# File Created: 27.04.2019 17:18:48

#
# object Cylinder001
#

v  -0.4755 0.0000 0.1545
v  -0.4455 0.0000 0.2270
v  -0.4045 0.0000 0.2939
v  -0.3536 0.0000 0.3536
v  -0.2939 0.0000 0.4045
v  -0.2270 0.0000 0.4455
v  -0.1545 0.0000 0.4755
v  -0.0782 0.0000 0.4938
v  -0.0000 0.0000 0.5000
v  0.0782 -0.0000 0.4938
v  0.1545 -0.0000 0.4755
v  0.2270 -0.0000 0.4455
v  0.2939 -0.0000 0.4045
v  0.3536 -0.0000 0.3536
v  0.4045 -0.0000 0.2939
v  0.4455 -0.0000 0.2270
v  0.4755 -0.0000 0.1545
v  0.4938 -0.0000 0.0782
v  0.5000 -0.0000 0.0000
v  0.4938 -0.0000 -0.0782
v  0.4755 -0.0000 -0.1545
v  0.4455 -0.0000 -0.2270
v  0.4045 -0.0000 -0.2939
v  0.3536 -0.0000 -0.3536
v  0.2939 -0.0000 -0.4045
v  0.2270 -0.0000 -0.4455
v  0.1545 -0.0000 -0.4755
v  0.0782 -0.0000 -0.4938
v  0.0000 -0.0000 -0.5000
v  -0.0782 0.0000 -0.4938
v  -0.1545 0.0000 -0.4755
v  -0.2270 0.0000 -0.4455
v  -0.2939 0.0000 -0.4045
v  -0.3536 0.0000 -0.3536
v  -0.4045 0.0000 -0.2939
v  -0.4455 0.0000 -0.2270
v  -0.4755 0.0000 -0.1545
v  -0.4938 0.0000 -0.0782
v  -0.5000 0.0000 -0.0000
v  -0.4938 0.0000 0.0782
# 40 vertices

vn 0.0000 1.0000 -0.0000
# 1 vertex normals

vt 0.3048 0.0000 -0.0787
vt 0.2368 0.0000 -0.2342
vt 0.1753 0.0000 -0.3839
vt 0.1217 0.0000 -0.5241
vt 0.0775 0.0000 -0.6515
vt 0.0437 0.0000 -0.7628
vt 0.0212 0.0000 -0.8553
vt 0.0104 0.0000 -0.9267
vt 0.0117 0.0000 -0.9754
vt 0.0250 0.0000 -1.0000
vt 0.0500 0.0000 -1.0000
vt 0.0861 0.0000 -0.9754
vt 0.1324 0.0000 -0.9267
vt 0.1877 0.0000 -0.8553
vt 0.2507 0.0000 -0.7628
vt 0.3198 0.0000 -0.6515
vt 0.3934 0.0000 -0.5241
vt 0.4697 0.0000 -0.3839
vt 0.5466 0.0000 -0.2342
vt 0.6224 0.0000 -0.0787
vt 0.6952 0.0000 0.0787
vt 0.7632 0.0000 0.2342
vt 0.8247 0.0000 0.3839
vt 0.8782 0.0000 0.5241
vt 0.9224 0.0000 0.6515
vt 0.9562 0.0000 0.7628
vt 0.9788 0.0000 0.8553
vt 0.9896 0.0000 0.9267
vt 0.9883 0.0000 0.9754
vt 0.9750 0.0000 1.0000
vt 0.9500 0.0000 1.0000
vt 0.9250 0.0000 1.0000
vt 0.9000 0.0000 1.0000
vt 0.8750 0.0000 1.0000
vt 0.8500 0.0000 1.0000
vt 0.8250 0.0000 1.0000
vt 0.8000 0.0000 1.0000
vt 0.7750 0.0000 1.0000
vt 0.7500 0.0000 1.0000
vt 0.3776 0.0000 0.0787
# 40 texture coords

o Cylinder001
g Cylinder001
f 1/1/1 2/2/1 3/3/1 
f 3/3/1 4/4/1 5/5/1 
f 5/5/1 6/6/1 7/7/1 
f 3/3/1 5/5/1 7/7/1 
f 7/7/1 8/8/1 9/9/1 
f 9/9/1 10/10/1 11/11/1 
f 7/7/1 9/9/1 11/11/1 
f 11/11/1 12/12/1 13/13/1 
f 13/13/1 14/14/1 15/15/1 
f 11/11/1 13/13/1 15/15/1 
f 7/7/1 11/11/1 15/15/1 
f 15/15/1 16/16/1 17/17/1 
f 17/17/1 18/18/1 19/19/1 
f 15/15/1 17/17/1 19/19/1 
f 19/19/1 20/20/1 21/21/1 
f 21/21/1 22/22/1 23/23/1 
f 19/19/1 21/21/1 23/23/1 
f 15/15/1 19/19/1 23/23/1 
f 23/23/1 24/24/1 25/25/1 
f 25/25/1 26/26/1 27/27/1 
f 23/23/1 25/25/1 27/27/1 
f 27/27/1 28/28/1 29/29/1 
f 29/29/1 30/30/1 31/31/1 
f 27/27/1 29/29/1 31/31/1 
f 23/23/1 27/27/1 31/31/1 
f 31/31/1 32/32/1 33/33/1 
f 33/33/1 34/34/1 35/35/1 
f 31/31/1 33/33/1 35/35/1 
f 35/35/1 36/36/1 37/37/1 
f 37/37/1 38/38/1 39/39/1 
f 35/35/1 37/37/1 39/39/1 
f 31/31/1 35/35/1 39/39/1 
f 23/23/1 31/31/1 39/39/1 
f 15/15/1 23/23/1 39/39/1 
f 7/7/1 15/15/1 39/39/1 
f 3/3/1 7/7/1 39/39/1 
f 1/1/1 3/3/1 39/39/1 
f 40/40/1 1/1/1 39/39/1 
# 38 faces

