# 3ds Max Wavefront OBJ Exporter v0.97b - (c)2007 guruware
# File Created: 27.04.2019 13:18:43

#
# object Cylinder001
#

v  0.0000 0.0000 -0.0000
v  0.9877 0.0000 -0.1564
v  1.0000 0.0000 -0.0000
v  0.9511 0.0000 -0.3090
v  0.8910 0.0000 -0.4540
v  0.8090 0.0000 -0.5878
v  0.7071 0.0000 -0.7071
v  0.5878 0.0000 -0.8090
v  0.4540 0.0000 -0.8910
v  0.3090 0.0000 -0.9511
v  0.1564 0.0000 -0.9877
v  -0.0000 0.0000 -1.0000
v  -0.1564 0.0000 -0.9877
v  -0.3090 0.0000 -0.9511
v  -0.4540 0.0000 -0.8910
v  -0.5878 0.0000 -0.8090
v  -0.7071 0.0000 -0.7071
v  -0.8090 0.0000 -0.5878
v  -0.8910 0.0000 -0.4540
v  -0.9511 0.0000 -0.3090
v  -0.9877 0.0000 -0.1564
v  -1.0000 0.0000 0.0000
v  -0.9877 0.0000 0.1564
v  -0.9511 0.0000 0.3090
v  -0.8910 0.0000 0.4540
v  -0.8090 0.0000 0.5878
v  -0.7071 0.0000 0.7071
v  -0.5878 0.0000 0.8090
v  -0.4540 0.0000 0.8910
v  -0.3090 0.0000 0.9511
v  -0.1564 0.0000 0.9877
v  0.0000 0.0000 1.0000
v  0.1564 0.0000 0.9877
v  0.3090 0.0000 0.9511
v  0.4540 0.0000 0.8910
v  0.5878 0.0000 0.8090
v  0.7071 0.0000 0.7071
v  0.8090 0.0000 0.5878
v  0.8910 0.0000 0.4540
v  0.9511 0.0000 0.3090
v  0.9877 0.0000 0.1564
v  0.9877 1.0000 -0.1564
v  1.0000 1.0000 -0.0000
v  0.9511 1.0000 -0.3090
v  0.8910 1.0000 -0.4540
v  0.8090 1.0000 -0.5878
v  0.7071 1.0000 -0.7071
v  0.5878 1.0000 -0.8090
v  0.4540 1.0000 -0.8910
v  0.3090 1.0000 -0.9511
v  0.1564 1.0000 -0.9877
v  -0.0000 1.0000 -1.0000
v  -0.1564 1.0000 -0.9877
v  -0.3090 1.0000 -0.9511
v  -0.4540 1.0000 -0.8910
v  -0.5878 1.0000 -0.8090
v  -0.7071 1.0000 -0.7071
v  -0.8090 1.0000 -0.5878
v  -0.8910 1.0000 -0.4540
v  -0.9511 1.0000 -0.3090
v  -0.9877 1.0000 -0.1564
v  -1.0000 1.0000 0.0000
v  -0.9877 1.0000 0.1564
v  -0.9511 1.0000 0.3090
v  -0.8910 1.0000 0.4540
v  -0.8090 1.0000 0.5878
v  -0.7071 1.0000 0.7071
v  -0.5878 1.0000 0.8090
v  -0.4540 1.0000 0.8910
v  -0.3090 1.0000 0.9511
v  -0.1564 1.0000 0.9877
v  0.0000 1.0000 1.0000
v  0.1564 1.0000 0.9877
v  0.3090 1.0000 0.9511
v  0.4540 1.0000 0.8910
v  0.5878 1.0000 0.8090
v  0.7071 1.0000 0.7071
v  0.8090 1.0000 0.5878
v  0.8910 1.0000 0.4540
v  0.9511 1.0000 0.3090
v  0.9877 1.0000 0.1564
v  0.0000 1.0000 -0.0000
# 82 vertices

vn 0.0000 -1.0000 -0.0000
vn 1.0000 0.0000 -0.0000
vn 0.9877 0.0000 -0.1564
vn 0.9511 0.0000 -0.3090
vn 0.8910 0.0000 -0.4540
vn 0.8090 0.0000 -0.5878
vn 0.7071 0.0000 -0.7071
vn 0.5878 0.0000 -0.8090
vn 0.4540 0.0000 -0.8910
vn 0.3090 0.0000 -0.9511
vn 0.1564 0.0000 -0.9877
vn -0.0000 0.0000 -1.0000
vn -0.1564 0.0000 -0.9877
vn -0.3090 0.0000 -0.9511
vn -0.4540 0.0000 -0.8910
vn -0.5878 0.0000 -0.8090
vn -0.7071 0.0000 -0.7071
vn -0.8090 0.0000 -0.5878
vn -0.8910 0.0000 -0.4540
vn -0.9511 0.0000 -0.3090
vn -0.9877 0.0000 -0.1564
vn -1.0000 0.0000 0.0000
vn -0.9877 0.0000 0.1564
vn -0.9511 0.0000 0.3090
vn -0.8910 0.0000 0.4540
vn -0.8090 0.0000 0.5878
vn -0.7071 0.0000 0.7071
vn -0.5878 0.0000 0.8090
vn -0.4540 0.0000 0.8910
vn -0.3090 0.0000 0.9511
vn -0.1564 0.0000 0.9877
vn 0.0000 0.0000 1.0000
vn 0.1564 0.0000 0.9877
vn 0.3090 0.0000 0.9511
vn 0.4540 0.0000 0.8910
vn 0.5878 0.0000 0.8090
vn 0.7071 0.0000 0.7071
vn 0.8090 0.0000 0.5878
vn 0.8910 0.0000 0.4540
vn 0.9511 0.0000 0.3090
vn 0.9877 0.0000 0.1564
vn 0.0000 1.0000 -0.0000
# 42 vertex normals

vt 0.5000 0.0000 0.0000
vt 0.7750 0.0000 1.0000
vt 0.7500 0.0000 1.0000
vt 0.8000 0.0000 1.0000
vt 0.8250 0.0000 1.0000
vt 0.8500 0.0000 1.0000
vt 0.8750 0.0000 1.0000
vt 0.9000 0.0000 1.0000
vt 0.9250 0.0000 1.0000
vt 0.9500 0.0000 1.0000
vt 0.9750 0.0000 1.0000
vt 0.0000 0.0000 1.0000
vt -0.0250 0.0000 1.0000
vt 0.0250 0.0000 1.0000
vt 0.0500 0.0000 1.0000
vt 0.0750 0.0000 1.0000
vt 0.1000 0.0000 1.0000
vt 0.1250 0.0000 1.0000
vt 0.1500 0.0000 1.0000
vt 0.1750 0.0000 1.0000
vt 0.2000 0.0000 1.0000
vt 0.2250 0.0000 1.0000
vt 0.2500 0.0000 1.0000
vt 0.2750 0.0000 1.0000
vt 0.3000 0.0000 1.0000
vt 0.3250 0.0000 1.0000
vt 0.3500 0.0000 1.0000
vt 0.3750 0.0000 1.0000
vt 0.4000 0.0000 1.0000
vt 0.4250 0.0000 1.0000
vt 0.4500 0.0000 1.0000
vt 0.4750 0.0000 1.0000
vt 0.5000 0.0000 1.0000
vt 0.5250 0.0000 1.0000
vt 0.5500 0.0000 1.0000
vt 0.5750 0.0000 1.0000
vt 0.6000 0.0000 1.0000
vt 0.6250 0.0000 1.0000
vt 0.6500 0.0000 1.0000
vt 0.6750 0.0000 1.0000
vt 0.7000 0.0000 1.0000
vt 0.7250 0.0000 1.0000
vt 0.7750 1.0000 1.0000
vt 0.7500 1.0000 1.0000
vt 0.8000 1.0000 1.0000
vt 0.8250 1.0000 1.0000
vt 0.8500 1.0000 1.0000
vt 0.8750 1.0000 1.0000
vt 0.9000 1.0000 1.0000
vt 0.9250 1.0000 1.0000
vt 0.9500 1.0000 1.0000
vt 0.9750 1.0000 1.0000
vt 0.0000 1.0000 1.0000
vt -0.0250 1.0000 1.0000
vt 0.0250 1.0000 1.0000
vt 0.0500 1.0000 1.0000
vt 0.0750 1.0000 1.0000
vt 0.1000 1.0000 1.0000
vt 0.1250 1.0000 1.0000
vt 0.1500 1.0000 1.0000
vt 0.1750 1.0000 1.0000
vt 0.2000 1.0000 1.0000
vt 0.2250 1.0000 1.0000
vt 0.2500 1.0000 1.0000
vt 0.2750 1.0000 1.0000
vt 0.3000 1.0000 1.0000
vt 0.3250 1.0000 1.0000
vt 0.3500 1.0000 1.0000
vt 0.3750 1.0000 1.0000
vt 0.4000 1.0000 1.0000
vt 0.4250 1.0000 1.0000
vt 0.4500 1.0000 1.0000
vt 0.4750 1.0000 1.0000
vt 0.5000 1.0000 1.0000
vt 0.5250 1.0000 1.0000
vt 0.5500 1.0000 1.0000
vt 0.5750 1.0000 1.0000
vt 0.6000 1.0000 1.0000
vt 0.6250 1.0000 1.0000
vt 0.6500 1.0000 1.0000
vt 0.6750 1.0000 1.0000
vt 0.7000 1.0000 1.0000
vt 0.7250 1.0000 1.0000
vt 0.5000 1.0000 0.0000
# 84 texture coords

o Cylinder001
g Cylinder001
f 1/1/1 2/2/1 3/3/1 
f 1/1/1 4/4/1 2/2/1 
f 1/1/1 5/5/1 4/4/1 
f 1/1/1 6/6/1 5/5/1 
f 1/1/1 7/7/1 6/6/1 
f 1/1/1 8/8/1 7/7/1 
f 1/1/1 9/9/1 8/8/1 
f 1/1/1 10/10/1 9/9/1 
f 1/1/1 11/11/1 10/10/1 
f 1/1/1 12/12/1 11/13/1 
f 1/1/1 13/14/1 12/12/1 
f 1/1/1 14/15/1 13/14/1 
f 1/1/1 15/16/1 14/15/1 
f 1/1/1 16/17/1 15/16/1 
f 1/1/1 17/18/1 16/17/1 
f 1/1/1 18/19/1 17/18/1 
f 1/1/1 19/20/1 18/19/1 
f 1/1/1 20/21/1 19/20/1 
f 1/1/1 21/22/1 20/21/1 
f 1/1/1 22/23/1 21/22/1 
f 1/1/1 23/24/1 22/23/1 
f 1/1/1 24/25/1 23/24/1 
f 1/1/1 25/26/1 24/25/1 
f 1/1/1 26/27/1 25/26/1 
f 1/1/1 27/28/1 26/27/1 
f 1/1/1 28/29/1 27/28/1 
f 1/1/1 29/30/1 28/29/1 
f 1/1/1 30/31/1 29/30/1 
f 1/1/1 31/32/1 30/31/1 
f 1/1/1 32/33/1 31/32/1 
f 1/1/1 33/34/1 32/33/1 
f 1/1/1 34/35/1 33/34/1 
f 1/1/1 35/36/1 34/35/1 
f 1/1/1 36/37/1 35/36/1 
f 1/1/1 37/38/1 36/37/1 
f 1/1/1 38/39/1 37/38/1 
f 1/1/1 39/40/1 38/39/1 
f 1/1/1 40/41/1 39/40/1 
f 1/1/1 41/42/1 40/41/1 
f 1/1/1 3/3/1 41/42/1 
f 3/3/2 42/43/3 43/44/2 
f 3/3/2 2/2/3 42/43/3 
f 2/2/3 44/45/4 42/43/3 
f 2/2/3 4/4/4 44/45/4 
f 4/4/4 45/46/5 44/45/4 
f 4/4/4 5/5/5 45/46/5 
f 5/5/5 46/47/6 45/46/5 
f 5/5/5 6/6/6 46/47/6 
f 6/6/6 47/48/7 46/47/6 
f 6/6/6 7/7/7 47/48/7 
f 7/7/7 48/49/8 47/48/7 
f 7/7/7 8/8/8 48/49/8 
f 8/8/8 49/50/9 48/49/8 
f 8/8/8 9/9/9 49/50/9 
f 9/9/9 50/51/10 49/50/9 
f 9/9/9 10/10/10 50/51/10 
f 10/10/10 51/52/11 50/51/10 
f 10/10/10 11/11/11 51/52/11 
f 11/13/11 52/53/12 51/54/11 
f 11/13/11 12/12/12 52/53/12 
f 12/12/12 53/55/13 52/53/12 
f 12/12/12 13/14/13 53/55/13 
f 13/14/13 54/56/14 53/55/13 
f 13/14/13 14/15/14 54/56/14 
f 14/15/14 55/57/15 54/56/14 
f 14/15/14 15/16/15 55/57/15 
f 15/16/15 56/58/16 55/57/15 
f 15/16/15 16/17/16 56/58/16 
f 16/17/16 57/59/17 56/58/16 
f 16/17/16 17/18/17 57/59/17 
f 17/18/17 58/60/18 57/59/17 
f 17/18/17 18/19/18 58/60/18 
f 18/19/18 59/61/19 58/60/18 
f 18/19/18 19/20/19 59/61/19 
f 19/20/19 60/62/20 59/61/19 
f 19/20/19 20/21/20 60/62/20 
f 20/21/20 61/63/21 60/62/20 
f 20/21/20 21/22/21 61/63/21 
f 21/22/21 62/64/22 61/63/21 
f 21/22/21 22/23/22 62/64/22 
f 22/23/22 63/65/23 62/64/22 
f 22/23/22 23/24/23 63/65/23 
f 23/24/23 64/66/24 63/65/23 
f 23/24/23 24/25/24 64/66/24 
f 24/25/24 65/67/25 64/66/24 
f 24/25/24 25/26/25 65/67/25 
f 25/26/25 66/68/26 65/67/25 
f 25/26/25 26/27/26 66/68/26 
f 26/27/26 67/69/27 66/68/26 
f 26/27/26 27/28/27 67/69/27 
f 27/28/27 68/70/28 67/69/27 
f 27/28/27 28/29/28 68/70/28 
f 28/29/28 69/71/29 68/70/28 
f 28/29/28 29/30/29 69/71/29 
f 29/30/29 70/72/30 69/71/29 
f 29/30/29 30/31/30 70/72/30 
f 30/31/30 71/73/31 70/72/30 
f 30/31/30 31/32/31 71/73/31 
f 31/32/31 72/74/32 71/73/31 
f 31/32/31 32/33/32 72/74/32 
f 32/33/32 73/75/33 72/74/32 
f 32/33/32 33/34/33 73/75/33 
f 33/34/33 74/76/34 73/75/33 
f 33/34/33 34/35/34 74/76/34 
f 34/35/34 75/77/35 74/76/34 
f 34/35/34 35/36/35 75/77/35 
f 35/36/35 76/78/36 75/77/35 
f 35/36/35 36/37/36 76/78/36 
f 36/37/36 77/79/37 76/78/36 
f 36/37/36 37/38/37 77/79/37 
f 37/38/37 78/80/38 77/79/37 
f 37/38/37 38/39/38 78/80/38 
f 38/39/38 79/81/39 78/80/38 
f 38/39/38 39/40/39 79/81/39 
f 39/40/39 80/82/40 79/81/39 
f 39/40/39 40/41/40 80/82/40 
f 40/41/40 81/83/41 80/82/40 
f 40/41/40 41/42/41 81/83/41 
f 41/42/41 43/44/2 81/83/41 
f 41/42/41 3/3/2 43/44/2 
f 82/84/42 43/44/42 42/43/42 
f 82/84/42 42/43/42 44/45/42 
f 82/84/42 44/45/42 45/46/42 
f 82/84/42 45/46/42 46/47/42 
f 82/84/42 46/47/42 47/48/42 
f 82/84/42 47/48/42 48/49/42 
f 82/84/42 48/49/42 49/50/42 
f 82/84/42 49/50/42 50/51/42 
f 82/84/42 50/51/42 51/52/42 
f 82/84/42 51/54/42 52/53/42 
f 82/84/42 52/53/42 53/55/42 
f 82/84/42 53/55/42 54/56/42 
f 82/84/42 54/56/42 55/57/42 
f 82/84/42 55/57/42 56/58/42 
f 82/84/42 56/58/42 57/59/42 
f 82/84/42 57/59/42 58/60/42 
f 82/84/42 58/60/42 59/61/42 
f 82/84/42 59/61/42 60/62/42 
f 82/84/42 60/62/42 61/63/42 
f 82/84/42 61/63/42 62/64/42 
f 82/84/42 62/64/42 63/65/42 
f 82/84/42 63/65/42 64/66/42 
f 82/84/42 64/66/42 65/67/42 
f 82/84/42 65/67/42 66/68/42 
f 82/84/42 66/68/42 67/69/42 
f 82/84/42 67/69/42 68/70/42 
f 82/84/42 68/70/42 69/71/42 
f 82/84/42 69/71/42 70/72/42 
f 82/84/42 70/72/42 71/73/42 
f 82/84/42 71/73/42 72/74/42 
f 82/84/42 72/74/42 73/75/42 
f 82/84/42 73/75/42 74/76/42 
f 82/84/42 74/76/42 75/77/42 
f 82/84/42 75/77/42 76/78/42 
f 82/84/42 76/78/42 77/79/42 
f 82/84/42 77/79/42 78/80/42 
f 82/84/42 78/80/42 79/81/42 
f 82/84/42 79/81/42 80/82/42 
f 82/84/42 80/82/42 81/83/42 
f 82/84/42 81/83/42 43/44/42 
# 160 faces

