# 3ds Max Wavefront OBJ Exporter v0.97b - (c)2007 guruware
# File Created: 04.03.2019 15:38:39

#
# object Hedra001
#

v  0.0000 0.8507 0.5257
v  0.5257 0.0000 0.8507
v  0.8507 -0.5257 0.0000
v  0.5257 0.0000 -0.8507
v  0.0000 0.8507 -0.5257
v  0.0000 -0.8507 -0.5257
v  -0.8507 -0.5257 -0.0000
v  -0.8507 0.5257 -0.0000
v  -0.5257 0.0000 0.8507
v  0.8507 0.5257 0.0000
v  -0.5257 0.0000 -0.8507
v  0.0000 -0.8507 0.5257
# 12 vertices

vn 0.8507 0.5257 0.0000
vn 0.8507 0.5257 -0.0000
vn -0.5257 -0.0000 -0.8507
vn -0.5257 0.0000 -0.8507
vn -0.0000 0.8507 0.5257
vn 0.0000 0.8507 0.5257
vn 0.5257 -0.0000 -0.8507
vn 0.5257 0.0000 -0.8507
vn -0.8507 0.5257 -0.0000
vn 0.5257 -0.0000 0.8507
vn 0.5257 0.0000 0.8507
vn -0.0000 0.8507 -0.5257
vn 0.0000 0.8507 -0.5257
vn -0.5257 -0.0000 0.8507
vn -0.5257 0.0000 0.8507
vn 0.0000 -0.8507 0.5257
vn -0.0000 -0.8507 0.5257
vn 0.8507 -0.5257 0.0000
vn 0.8507 -0.5257 -0.0000
vn 0.0000 -0.8507 -0.5257
vn -0.8507 -0.5257 -0.0000
vn -0.8507 -0.5257 0.0000
# 22 vertex normals

vt -0.3090 0.5000 0.0000
vt -0.5000 0.0000 0.3090
vt -0.0000 -0.3090 0.5000
vt 0.5000 0.0000 0.3090
vt 0.3090 0.5000 0.0000
vt 0.0000 0.3090 0.5000
vt -0.3090 -0.5000 0.0000
vt 0.3090 -0.5000 0.0000
vt 0.5000 -0.0000 0.3090
vt 0.3090 0.5000 -0.0000
vt -0.3090 0.5000 -0.0000
vt 0.0000 -0.3090 0.5000
vt 0.5000 0.0000 -0.3090
vt 0.0000 -0.3090 -0.5000
vt -0.5000 0.0000 -0.3090
vt 0.0000 0.3090 -0.5000
vt 0.5000 -0.0000 -0.3090
vt -0.0000 0.3090 0.5000
# 18 texture coords

o Hedra001
g Hedra001
f 1/1/1 2/2/1 3/3/1 
f 1/1/2 3/3/2 4/4/2 
f 1/1/2 4/4/2 5/5/2 
f 4/6/3 6/2/3 7/7/3 
f 4/6/4 7/7/4 8/8/4 
f 4/6/4 8/8/4 5/4/4 
f 8/2/5 9/7/5 2/8/5 
f 8/2/6 2/8/6 10/9/6 
f 8/2/5 10/9/5 5/6/5 
f 10/10/7 3/11/7 6/2/7 
f 10/10/7 6/2/7 11/12/7 
f 10/10/8 11/12/8 5/4/8 
f 11/13/9 7/14/9 9/15/9 
f 11/13/9 9/15/9 1/1/9 
f 11/13/9 1/1/9 5/5/9 
f 9/14/10 12/15/10 3/11/10 
f 9/14/11 3/11/11 10/10/11 
f 9/14/11 10/10/11 1/13/11 
f 10/9/12 4/5/12 11/1/12 
f 10/9/13 11/1/13 8/2/13 
f 10/9/13 8/2/13 1/12/13 
f 8/8/14 7/7/14 12/15/14 
f 8/8/14 12/15/14 2/16/14 
f 8/8/15 2/16/15 1/13/15 
f 2/8/16 9/7/16 7/15/16 
f 2/8/17 7/15/17 6/16/17 
f 2/8/16 6/16/16 3/17/16 
f 2/2/18 12/7/18 6/8/18 
f 2/2/19 6/8/19 4/4/19 
f 2/2/18 4/4/18 10/18/18 
f 7/15/20 11/1/20 4/5/20 
f 7/15/20 4/5/20 3/17/20 
f 7/15/20 3/17/20 12/14/20 
f 9/15/21 8/16/21 11/13/21 
f 9/15/22 11/13/22 6/8/22 
f 9/15/21 6/8/21 12/7/21 
# 36 faces

