# 3ds Max Wavefront OBJ Exporter v0.97b - (c)2007 guruware
# File Created: 04.03.2019 15:40:14

#
# object Hedra001
#

v  0.4870 0.8734 -0.0000
v  0.6639 0.5872 0.4631
v  0.9501 0.1241 0.2862
v  0.9501 0.1241 -0.2862
v  0.6639 0.5872 -0.4631
v  -0.1241 0.2862 -0.9501
v  -0.1241 -0.2862 -0.9501
v  -0.5872 -0.4631 -0.6639
v  -0.8734 -0.0000 -0.4870
v  -0.5872 0.4631 -0.6639
v  -0.2862 0.9501 0.1241
v  -0.4631 0.6639 0.5872
v  -0.0000 0.4870 0.8734
v  0.4631 0.6639 0.5872
v  0.2862 0.9501 0.1241
v  0.5872 0.4631 -0.6639
v  0.8734 -0.0000 -0.4870
v  0.5872 -0.4631 -0.6639
v  0.1241 -0.2862 -0.9501
v  0.1241 0.2862 -0.9501
v  -0.6639 0.5872 -0.4631
v  -0.9501 0.1241 -0.2862
v  -0.9501 0.1241 0.2862
v  -0.6639 0.5872 0.4631
v  -0.4870 0.8734 -0.0000
v  0.1241 0.2862 0.9501
v  0.1241 -0.2862 0.9501
v  0.5872 -0.4631 0.6639
v  0.8734 0.0000 0.4870
v  0.5872 0.4631 0.6639
v  0.2862 0.9501 -0.1241
v  0.4631 0.6639 -0.5872
v  0.0000 0.4870 -0.8734
v  -0.4631 0.6639 -0.5872
v  -0.2862 0.9501 -0.1241
v  -0.5872 0.4631 0.6639
v  -0.8734 -0.0000 0.4870
v  -0.5872 -0.4631 0.6639
v  -0.1241 -0.2862 0.9501
v  -0.1241 0.2862 0.9501
v  -0.0000 -0.4870 0.8734
v  -0.4631 -0.6639 0.5872
v  -0.2862 -0.9501 0.1241
v  0.2862 -0.9501 0.1241
v  0.4631 -0.6639 0.5872
v  0.6639 -0.5872 0.4631
v  0.4870 -0.8734 0.0000
v  0.6639 -0.5872 -0.4631
v  0.9501 -0.1241 -0.2862
v  0.9501 -0.1241 0.2862
v  -0.2862 -0.9501 -0.1241
v  -0.4631 -0.6639 -0.5872
v  0.0000 -0.4870 -0.8734
v  0.4631 -0.6639 -0.5872
v  0.2862 -0.9501 -0.1241
v  -0.6639 -0.5872 0.4631
v  -0.9501 -0.1241 0.2862
v  -0.9501 -0.1241 -0.2862
v  -0.6639 -0.5872 -0.4631
v  -0.4870 -0.8734 -0.0000
v  0.0000 0.6320 -0.3906
v  -0.0000 0.6320 0.3906
v  0.3906 0.0000 0.6320
v  -0.0000 -0.6320 0.3906
v  0.0000 -0.6320 -0.3906
v  -0.3906 -0.0000 -0.6320
v  -0.6320 -0.3906 -0.0000
v  -0.6320 0.3906 -0.0000
v  -0.3906 -0.0000 0.6320
v  0.3906 0.0000 -0.6320
v  0.6320 0.3906 0.0000
v  0.6320 -0.3906 0.0000
# 72 vertices

vn 0.8507 0.5257 -0.0000
vn -0.5257 0.0000 -0.8507
vn 0.0000 0.8507 0.5257
vn 0.5257 0.0000 -0.8507
vn -0.8507 0.5257 -0.0000
vn 0.5257 0.0000 0.8507
vn 0.0000 0.8507 -0.5257
vn -0.5257 0.0000 0.8507
vn 0.0000 -0.8507 0.5257
vn 0.8507 -0.5257 -0.0000
vn 0.0000 -0.8507 -0.5257
vn -0.8507 -0.5257 -0.0000
vn -0.0000 0.8507 -0.5257
vn -0.0000 0.8507 0.5257
vn 0.5257 -0.0000 0.8507
vn -0.0000 -0.8507 0.5257
vn -0.0000 -0.8507 -0.5257
vn -0.5257 -0.0000 -0.8507
vn -0.8507 -0.5257 0.0000
vn -0.8507 0.5257 0.0000
vn -0.5257 -0.0000 0.8507
vn 0.5257 -0.0000 -0.8507
vn 0.8507 0.5257 0.0000
vn 0.8507 -0.5257 0.0000
# 24 vertex normals

vt 0.0000 0.4596 0.2563
vt -0.2437 0.3090 0.3494
vt -0.1506 0.0653 0.5000
vt 0.1506 0.0653 0.5000
vt 0.2437 0.3090 0.3494
vt 0.1506 -0.0653 0.5000
vt -0.1506 -0.0653 0.5000
vt -0.2437 -0.3090 0.3494
vt -0.0000 -0.4596 0.2563
vt 0.2437 -0.3090 0.3494
vt -0.0000 0.4596 0.2563
vt 0.2437 0.3090 -0.3494
vt 0.1506 0.0653 -0.5000
vt -0.1506 0.0653 -0.5000
vt -0.2437 0.3090 -0.3494
vt 0.0000 0.4596 -0.2563
vt 0.2437 -0.3090 -0.3494
vt -0.0000 -0.4596 -0.2563
vt -0.2437 -0.3090 -0.3494
vt -0.1506 -0.0653 -0.5000
vt 0.1506 -0.0653 -0.5000
vt 0.0000 -0.4596 -0.2563
vt 0.0000 0.2056 0.3326
vt 0.2563 0.0000 0.4596
vt 0.3494 0.2437 0.3090
vt -0.0653 0.5000 0.1506
vt -0.3090 0.3494 0.2437
vt 0.3090 0.3494 0.2437
vt 0.0653 0.5000 0.1506
vt -0.3494 0.2437 0.3090
vt -0.2563 0.0000 0.4596
vt -0.0000 -0.2056 0.3326
vt -0.3494 -0.2437 0.3090
vt 0.0653 -0.5000 0.1506
vt 0.3090 -0.3494 0.2437
vt -0.3090 -0.3494 0.2437
vt -0.0653 -0.5000 0.1506
vt 0.3494 -0.2437 0.3090
vt 0.0000 0.2056 -0.3326
vt -0.3090 0.3494 -0.2437
vt -0.0653 0.5000 -0.1506
vt 0.3494 0.2437 -0.3090
vt 0.2563 -0.0000 -0.4596
vt -0.2563 -0.0000 -0.4596
vt -0.3494 0.2437 -0.3090
vt 0.0653 0.5000 -0.1506
vt 0.3090 0.3494 -0.2437
vt -0.0000 -0.2056 -0.3326
vt -0.0653 -0.5000 -0.1506
vt -0.3090 -0.3494 -0.2437
vt 0.3090 -0.3494 -0.2437
vt 0.0653 -0.5000 -0.1506
vt -0.3494 -0.2437 -0.3090
vt -0.2563 0.0000 -0.4596
vt 0.3494 -0.2437 -0.3090
vt 0.0000 -0.2056 -0.3326
vt -0.0000 0.2056 0.3326
vt 0.2563 -0.0000 0.4596
# 58 texture coords

o Hedra001
g Hedra001
f 1/1/1 2/2/1 3/3/1 
f 1/1/1 3/3/1 4/4/1 
f 1/1/1 4/4/1 5/5/1 
f 6/6/2 7/7/2 8/8/2 
f 6/6/2 8/8/2 9/9/2 
f 6/6/2 9/9/2 10/10/2 
f 11/7/3 12/8/3 13/9/3 
f 11/7/3 13/9/3 14/10/3 
f 11/7/3 14/10/3 15/6/3 
f 16/5/4 17/11/4 18/2/4 
f 16/5/4 18/2/4 19/3/4 
f 16/5/4 19/3/4 20/4/4 
f 21/12/5 22/13/5 23/14/5 
f 21/12/5 23/14/5 24/15/5 
f 21/12/5 24/15/5 25/16/5 
f 26/13/6 27/14/6 28/15/6 
f 26/13/6 28/15/6 29/16/6 
f 26/13/6 29/16/6 30/12/6 
f 31/4/7 32/5/7 33/1/7 
f 31/4/7 33/1/7 34/2/7 
f 31/4/7 34/2/7 35/3/7 
f 36/17/8 37/18/8 38/19/8 
f 36/17/8 38/19/8 39/20/8 
f 36/17/8 39/20/8 40/21/8 
f 41/18/9 42/19/9 43/20/9 
f 41/18/9 43/20/9 44/21/9 
f 41/18/9 44/21/9 45/17/9 
f 46/8/10 47/9/10 48/10/10 
f 46/8/10 48/10/10 49/6/10 
f 46/8/10 49/6/10 50/7/10 
f 51/14/11 52/15/11 53/16/11 
f 51/14/11 53/16/11 54/12/11 
f 51/14/11 54/12/11 55/13/11 
f 56/19/12 57/20/12 58/21/12 
f 56/19/12 58/21/12 59/17/12 
f 56/19/12 59/17/12 60/22/12 
f 61/23/7 1/24/7 5/25/7 
f 61/23/7 5/25/7 6/26/7 
f 61/23/7 6/26/7 10/27/7 
f 61/23/13 10/27/13 11/7/13 
f 61/23/7 11/7/7 15/6/7 
f 61/23/7 15/6/7 16/28/7 
f 61/23/7 16/28/7 20/29/7 
f 61/23/7 20/29/7 21/30/7 
f 61/23/13 21/30/13 25/31/13 
f 61/23/7 25/31/7 1/24/7 
f 62/32/14 25/31/14 24/33/14 
f 62/32/14 24/33/14 26/34/14 
f 62/32/3 26/34/3 30/35/3 
f 62/32/3 30/35/3 31/4/3 
f 62/32/3 31/4/3 35/3/3 
f 62/32/14 35/3/14 36/36/14 
f 62/32/14 36/36/14 40/37/14 
f 62/32/3 40/37/3 2/38/3 
f 62/32/3 2/38/3 1/24/3 
f 62/32/3 1/24/3 25/31/3 
f 63/39/6 40/21/6 39/20/6 
f 63/39/15 39/20/15 46/40/15 
f 63/39/15 46/40/15 50/41/15 
f 63/39/6 50/41/6 14/42/6 
f 63/39/6 14/42/6 13/43/6 
f 63/39/6 13/43/6 41/44/6 
f 63/39/15 41/44/15 45/45/15 
f 63/39/15 45/45/15 3/46/15 
f 63/39/6 3/46/6 2/47/6 
f 63/39/6 2/47/6 40/21/6 
f 64/48/9 39/49/9 38/50/9 
f 64/48/16 38/50/16 51/14/16 
f 64/48/9 51/14/9 55/13/9 
f 64/48/9 55/13/9 28/51/9 
f 64/48/9 28/51/9 27/52/9 
f 64/48/9 27/52/9 56/53/9 
f 64/48/16 56/53/16 60/54/16 
f 64/48/16 60/54/16 47/43/16 
f 64/48/9 47/43/9 46/55/9 
f 64/48/9 46/55/9 39/49/9 
f 65/39/17 60/54/17 59/45/17 
f 65/39/17 59/45/17 19/46/17 
f 65/39/11 19/46/11 18/47/11 
f 65/39/11 18/47/11 44/21/11 
f 65/39/11 44/21/11 43/20/11 
f 65/39/17 43/20/17 8/40/17 
f 65/39/17 8/40/17 7/41/17 
f 65/39/11 7/41/11 48/42/11 
f 65/39/11 48/42/11 47/43/11 
f 65/39/11 47/43/11 60/54/11 
f 66/32/18 59/36/18 58/37/18 
f 66/32/2 58/37/2 34/38/2 
f 66/32/2 34/38/2 33/24/2 
f 66/32/18 33/24/18 53/31/18 
f 66/32/18 53/31/18 52/33/18 
f 66/32/18 52/33/18 22/34/18 
f 66/32/2 22/34/2 21/35/2 
f 66/32/2 21/35/2 20/4/2 
f 66/32/2 20/4/2 19/3/2 
f 66/32/18 19/3/18 59/36/18 
f 67/56/12 52/51/12 51/52/12 
f 67/56/12 51/52/12 38/53/12 
f 67/56/19 38/53/19 37/44/19 
f 67/56/19 37/44/19 9/43/19 
f 67/56/12 9/43/12 8/55/12 
f 67/56/12 8/55/12 43/49/12 
f 67/56/12 43/49/12 42/50/12 
f 67/56/19 42/50/19 23/14/19 
f 67/56/12 23/14/12 22/13/12 
f 67/56/12 22/13/12 52/51/12 
f 68/39/20 37/44/20 36/45/20 
f 68/39/20 36/45/20 35/46/20 
f 68/39/5 35/46/5 34/47/5 
f 68/39/5 34/47/5 58/21/5 
f 68/39/5 58/21/5 57/20/5 
f 68/39/20 57/20/20 12/40/20 
f 68/39/20 12/40/20 11/41/20 
f 68/39/5 11/41/5 10/42/5 
f 68/39/5 10/42/5 9/43/5 
f 68/39/5 9/43/5 37/44/5 
f 69/48/8 57/49/8 56/50/8 
f 69/48/21 56/50/21 27/14/21 
f 69/48/8 27/14/8 26/13/8 
f 69/48/8 26/13/8 24/51/8 
f 69/48/8 24/51/8 23/52/8 
f 69/48/8 23/52/8 42/53/8 
f 69/48/21 42/53/21 41/44/21 
f 69/48/21 41/44/21 13/43/21 
f 69/48/8 13/43/8 12/55/8 
f 69/48/8 12/55/8 57/49/8 
f 70/23/4 33/24/4 32/25/4 
f 70/23/4 32/25/4 49/26/4 
f 70/23/4 49/26/4 48/27/4 
f 70/23/22 48/27/22 7/7/22 
f 70/23/4 7/7/4 6/6/4 
f 70/23/4 6/6/4 5/28/4 
f 70/23/4 5/28/4 4/29/4 
f 70/23/4 4/29/4 54/30/4 
f 70/23/22 54/30/22 53/31/22 
f 70/23/4 53/31/4 33/24/4 
f 71/57/1 32/28/1 31/29/1 
f 71/57/1 31/29/1 30/30/1 
f 71/57/23 30/30/23 29/31/23 
f 71/57/1 29/31/1 17/58/1 
f 71/57/1 17/58/1 16/25/1 
f 71/57/1 16/25/1 15/26/1 
f 71/57/1 15/26/1 14/27/1 
f 71/57/23 14/27/23 50/7/23 
f 71/57/1 50/7/1 49/6/1 
f 71/57/1 49/6/1 32/28/1 
f 72/32/24 29/31/24 28/33/24 
f 72/32/24 28/33/24 55/34/24 
f 72/32/10 55/34/10 54/35/10 
f 72/32/10 54/35/10 4/4/10 
f 72/32/10 4/4/10 3/3/10 
f 72/32/24 3/3/24 45/36/24 
f 72/32/24 45/36/24 44/37/24 
f 72/32/10 44/37/10 18/38/10 
f 72/32/10 18/38/10 17/58/10 
f 72/32/24 17/58/24 29/31/24 
# 156 faces

