# 3ds Max Wavefront OBJ Exporter v0.97b - (c)2007 guruware
# File Created: 04.03.2019 15:37:51

#
# object Hedra001
#

v  0.5671 0.8237 -0.0000
v  0.8706 0.0290 0.4911
v  0.8706 0.0290 -0.4911
v  -0.0470 -0.5381 -0.8416
v  -0.5381 -0.8416 -0.0470
v  -0.8416 -0.0470 -0.5381
v  -0.4911 0.8706 0.0290
v  -0.0000 0.5671 0.8237
v  0.4911 0.8706 0.0290
v  0.8416 -0.0470 -0.5381
v  0.5381 -0.8416 -0.0470
v  0.0470 -0.5381 -0.8416
v  -0.8706 0.0290 -0.4911
v  -0.8706 0.0290 0.4911
v  -0.5671 0.8237 -0.0000
v  0.0470 -0.5381 0.8416
v  0.5381 -0.8416 0.0470
v  0.8416 -0.0470 0.5381
v  0.4911 0.8706 -0.0290
v  0.0000 0.5671 -0.8237
v  -0.4911 0.8706 -0.0290
v  -0.8416 -0.0470 0.5381
v  -0.5381 -0.8416 0.0470
v  -0.0470 -0.5381 0.8416
v  0.8237 0.0000 0.5671
v  0.0290 0.4911 0.8706
v  0.0290 -0.4911 0.8706
v  0.0290 -0.4911 -0.8706
v  0.0290 0.4911 -0.8706
v  0.8237 0.0000 -0.5671
v  0.0000 -0.5671 -0.8237
v  0.4911 -0.8706 -0.0290
v  -0.4911 -0.8706 -0.0290
v  -0.8416 0.0470 0.5381
v  -0.0470 0.5381 0.8416
v  -0.5381 0.8416 0.0470
v  -0.0470 0.5381 -0.8416
v  -0.8416 0.0470 -0.5381
v  -0.5381 0.8416 -0.0470
v  0.8706 -0.0290 0.4911
v  0.5671 -0.8237 -0.0000
v  0.8706 -0.0290 -0.4911
v  0.8416 0.0470 0.5381
v  0.5381 0.8416 0.0470
v  0.0470 0.5381 0.8416
v  -0.8706 -0.0290 0.4911
v  -0.8706 -0.0290 -0.4911
v  -0.5671 -0.8237 -0.0000
v  0.4911 -0.8706 0.0290
v  -0.0000 -0.5671 0.8237
v  -0.4911 -0.8706 0.0290
v  0.0470 0.5381 -0.8416
v  0.5381 0.8416 -0.0470
v  0.8416 0.0470 -0.5381
v  -0.0290 0.4911 -0.8706
v  -0.0290 -0.4911 -0.8706
v  -0.8237 0.0000 -0.5671
v  -0.8237 -0.0000 0.5671
v  -0.0290 -0.4911 0.8706
v  -0.0290 0.4911 0.8706
v  0.0000 0.2277 -0.3684
v  -0.0000 0.2277 0.3684
v  0.2277 -0.3684 0.0000
v  -0.3684 -0.0000 -0.2277
v  0.2277 0.3684 0.0000
v  -0.0000 -0.2277 0.3684
v  0.0000 -0.2277 -0.3684
v  -0.2277 0.3684 0.0000
v  0.3684 -0.0000 0.2277
v  -0.2277 -0.3684 -0.0000
v  0.3684 0.0000 -0.2277
v  -0.3684 -0.0000 0.2277
# 72 vertices

vn 0.9342 0.3568 -0.0000
vn -0.5774 -0.5774 -0.5774
vn 0.0000 0.9342 0.3568
vn 0.5774 -0.5774 -0.5774
vn -0.9342 0.3568 -0.0000
vn 0.5774 -0.5774 0.5774
vn 0.0000 0.9342 -0.3568
vn -0.5774 -0.5774 0.5774
vn 0.3568 0.0000 0.9342
vn 0.3568 0.0000 -0.9342
vn 0.0000 -0.9342 -0.3568
vn -0.5774 0.5774 0.5774
vn -0.5774 0.5774 -0.5774
vn 0.9342 -0.3568 -0.0000
vn 0.5774 0.5774 0.5774
vn -0.9342 -0.3568 -0.0000
vn 0.0000 -0.9342 0.3568
vn 0.5774 0.5774 -0.5774
vn -0.3568 0.0000 -0.9342
vn -0.3568 0.0000 0.9342
vn 0.0000 0.5257 -0.8507
vn 0.0000 0.5257 0.8507
vn -0.0000 0.5257 0.8507
vn 0.5257 -0.8507 -0.0000
vn 0.5257 -0.8507 0.0000
vn -0.8507 0.0000 -0.5257
vn -0.8507 -0.0000 -0.5257
vn 0.5257 0.8507 -0.0000
vn 0.5257 0.8507 0.0000
vn 0.0000 -0.5257 0.8507
vn -0.0000 -0.5257 0.8507
vn 0.0000 -0.5257 -0.8507
vn -0.0000 -0.5257 -0.8507
vn -0.5257 0.8507 -0.0000
vn -0.5257 0.8507 0.0000
vn 0.8507 0.0000 0.5257
vn 0.8507 -0.0000 0.5257
vn -0.5257 -0.8507 -0.0000
vn 0.8507 0.0000 -0.5257
vn -0.8507 0.0000 0.5257
vn -0.8507 -0.0000 0.5257
# 41 vertex normals

vt 0.0000 0.4730 0.3257
vt -0.2821 0.0167 0.5000
vt 0.2821 0.0167 0.5000
vt -0.3090 -0.0270 0.4833
vt -0.4833 -0.3090 0.0270
vt -0.0270 -0.4833 0.3090
vt -0.2821 -0.0167 0.5000
vt -0.0000 -0.4730 0.3257
vt 0.2821 -0.0167 0.5000
vt -0.0270 0.4833 0.3090
vt -0.4833 0.3090 0.0270
vt -0.3090 0.0270 0.4833
vt 0.2821 0.0167 -0.5000
vt -0.2821 0.0167 -0.5000
vt 0.0000 0.4730 -0.3257
vt -0.3090 0.0270 -0.4833
vt -0.4833 0.3090 -0.0270
vt -0.0270 0.4833 -0.3090
vt -0.0270 -0.4833 -0.3090
vt -0.4833 -0.3090 -0.0270
vt -0.3090 -0.0270 -0.4833
vt 0.0000 -0.4730 0.3257
vt 0.0270 0.4833 -0.3090
vt 0.4833 0.3090 -0.0270
vt 0.3090 0.0270 -0.4833
vt -0.2821 -0.0167 -0.5000
vt 0.2821 -0.0167 -0.5000
vt 0.0000 -0.4730 -0.3257
vt -0.0000 -0.4730 -0.3257
vt 0.3090 0.0270 0.4833
vt 0.4833 0.3090 0.0270
vt 0.0270 0.4833 0.3090
vt 0.1307 0.0000 0.2115
vt 0.4730 0.3257 0.0000
vt 0.0167 0.5000 0.2821
vt 0.5000 -0.2821 -0.0167
vt 0.5000 0.2821 -0.0167
vt 0.0167 -0.5000 0.2821
vt 0.4730 -0.3257 0.0000
vt 0.1307 -0.0000 -0.2115
vt 0.0167 -0.5000 -0.2821
vt 0.5000 0.2821 0.0167
vt 0.5000 -0.2821 0.0167
vt 0.0167 0.5000 -0.2821
vt 0.1307 -0.0000 0.2115
vt -0.1307 -0.0000 -0.2115
vt 0.3090 -0.0270 -0.4833
vt 0.0270 -0.4833 -0.3090
vt -0.5000 -0.2821 0.0167
vt -0.5000 0.2821 0.0167
vt -0.0167 -0.5000 -0.2821
vt -0.4730 -0.3257 0.0000
vt -0.4730 0.3257 0.0000
vt -0.0167 0.5000 -0.2821
vt -0.1307 0.0000 0.2115
vt -0.0167 -0.5000 0.2821
vt -0.5000 0.2821 -0.0167
vt -0.5000 -0.2821 -0.0167
vt 0.0270 -0.4833 0.3090
vt 0.3090 -0.0270 0.4833
vt -0.0167 0.5000 0.2821
vt -0.1307 -0.0000 0.2115
vt -0.4730 -0.3257 -0.0000
vt -0.4730 0.3257 -0.0000
vt -0.1307 0.0000 -0.2115
# 65 texture coords

o Hedra001
g Hedra001
f 1/1/1 2/2/1 3/3/1 
f 4/4/2 5/5/2 6/6/2 
f 7/7/3 8/8/3 9/9/3 
f 10/10/4 11/11/4 12/12/4 
f 13/13/5 14/14/5 15/15/5 
f 16/16/6 17/17/6 18/18/6 
f 19/3/7 20/1/7 21/2/7 
f 22/19/8 23/20/8 24/21/8 
f 25/15/9 26/13/9 27/14/9 
f 28/2/10 29/3/10 30/1/10 
f 31/15/11 32/13/11 33/14/11 
f 34/16/12 35/17/12 36/18/12 
f 37/10/13 38/11/13 39/12/13 
f 40/7/14 41/22/14 42/9/14 
f 43/23/15 44/24/15 45/25/15 
f 46/26/16 47/27/16 48/28/16 
f 49/27/17 50/29/17 51/26/17 
f 52/30/18 53/31/18 54/32/18 
f 55/9/19 56/7/19 57/22/19 
f 58/29/20 59/26/20 60/27/20 
f 61/33/21 1/34/21 3/35/21 
f 61/33/21 3/35/21 4/4/21 
f 61/33/21 4/4/21 6/6/21 
f 61/33/21 6/6/21 7/36/21 
f 61/33/21 7/36/21 9/37/21 
f 61/33/21 9/37/21 10/10/21 
f 61/33/21 10/10/21 12/12/21 
f 61/33/21 12/12/21 13/38/21 
f 61/33/21 13/38/21 15/39/21 
f 61/33/21 15/39/21 1/34/21 
f 62/40/22 15/39/22 14/41/22 
f 62/40/22 14/41/22 16/16/22 
f 62/40/23 16/16/23 18/18/23 
f 62/40/23 18/18/23 19/42/23 
f 62/40/22 19/42/22 21/43/22 
f 62/40/23 21/43/23 22/19/23 
f 62/40/22 22/19/22 24/21/22 
f 62/40/22 24/21/22 2/44/22 
f 62/40/22 2/44/22 1/34/22 
f 62/40/22 1/34/22 15/39/22 
f 63/40/24 24/19/24 23/21/24 
f 63/40/24 23/21/24 28/44/24 
f 63/40/24 28/44/24 30/34/24 
f 63/40/24 30/34/24 25/39/24 
f 63/40/24 25/39/24 27/41/24 
f 63/40/24 27/41/24 5/16/24 
f 63/40/25 5/16/25 4/18/25 
f 63/40/25 4/18/25 3/42/25 
f 63/40/24 3/42/24 2/43/24 
f 63/40/25 2/43/25 24/19/25 
f 64/40/26 23/19/26 22/21/26 
f 64/40/26 22/21/26 21/44/26 
f 64/40/26 21/44/26 20/34/26 
f 64/40/27 20/34/27 31/39/27 
f 64/40/26 31/39/26 33/41/26 
f 64/40/26 33/41/26 34/16/26 
f 64/40/27 34/16/27 36/18/27 
f 64/40/27 36/18/27 29/42/27 
f 64/40/26 29/42/26 28/43/26 
f 64/40/27 28/43/27 23/19/27 
f 65/45/28 36/4/28 35/6/28 
f 65/45/28 35/6/28 40/36/28 
f 65/45/29 40/36/29 42/37/29 
f 65/45/28 42/37/28 37/10/28 
f 65/45/28 37/10/28 39/12/28 
f 65/45/28 39/12/28 26/38/28 
f 65/45/28 26/38/28 25/39/28 
f 65/45/29 25/39/29 30/34/29 
f 65/45/28 30/34/28 29/35/28 
f 65/45/28 29/35/28 36/4/28 
f 66/46/30 35/47/30 34/48/30 
f 66/46/30 34/48/30 33/49/30 
f 66/46/30 33/49/30 32/50/30 
f 66/46/30 32/50/30 43/23/30 
f 66/46/30 43/23/30 45/25/30 
f 66/46/30 45/25/30 46/51/30 
f 66/46/30 46/51/30 48/52/30 
f 66/46/31 48/52/31 41/53/31 
f 66/46/30 41/53/30 40/54/30 
f 66/46/30 40/54/30 35/47/30 
f 67/55/32 48/52/32 47/56/32 
f 67/55/32 47/56/32 52/30/32 
f 67/55/33 52/30/33 54/32/33 
f 67/55/33 54/32/33 49/57/33 
f 67/55/32 49/57/32 51/58/32 
f 67/55/33 51/58/33 38/59/33 
f 67/55/32 38/59/32 37/60/32 
f 67/55/32 37/60/32 42/61/32 
f 67/55/32 42/61/32 41/53/32 
f 67/55/32 41/53/32 48/52/32 
f 68/62/34 47/57/34 46/58/34 
f 68/62/35 46/58/35 45/59/35 
f 68/62/34 45/59/34 44/60/34 
f 68/62/34 44/60/34 55/61/34 
f 68/62/34 55/61/34 57/53/34 
f 68/62/35 57/53/35 58/63/35 
f 68/62/34 58/63/34 60/56/34 
f 68/62/34 60/56/34 53/30/34 
f 68/62/35 53/30/35 52/32/35 
f 68/62/35 52/32/35 47/57/35 
f 69/62/36 60/57/36 59/58/36 
f 69/62/37 59/58/37 11/59/37 
f 69/62/36 11/59/36 10/60/36 
f 69/62/36 10/60/36 9/61/36 
f 69/62/36 9/61/36 8/64/36 
f 69/62/36 8/64/36 50/63/36 
f 69/62/36 50/63/36 49/56/36 
f 69/62/36 49/56/36 54/30/36 
f 69/62/37 54/30/37 53/32/37 
f 69/62/37 53/32/37 60/57/37 
f 70/65/38 59/51/38 58/63/38 
f 70/65/38 58/63/38 57/53/38 
f 70/65/38 57/53/38 56/54/38 
f 70/65/38 56/54/38 17/47/38 
f 70/65/38 17/47/38 16/48/38 
f 70/65/38 16/48/38 14/49/38 
f 70/65/38 14/49/38 13/50/38 
f 70/65/38 13/50/38 12/23/38 
f 70/65/38 12/23/38 11/25/38 
f 70/65/38 11/25/38 59/51/38 
f 71/33/39 56/36/39 55/37/39 
f 71/33/39 55/37/39 44/10/39 
f 71/33/39 44/10/39 43/12/39 
f 71/33/39 43/12/39 32/38/39 
f 71/33/39 32/38/39 31/39/39 
f 71/33/39 31/39/39 20/34/39 
f 71/33/39 20/34/39 19/35/39 
f 71/33/39 19/35/39 18/4/39 
f 71/33/39 18/4/39 17/6/39 
f 71/33/39 17/6/39 56/36/39 
f 72/46/40 8/64/40 7/54/40 
f 72/46/40 7/54/40 6/47/40 
f 72/46/40 6/47/40 5/48/40 
f 72/46/40 5/48/40 27/49/40 
f 72/46/41 27/49/41 26/50/41 
f 72/46/40 26/50/40 39/23/40 
f 72/46/40 39/23/40 38/25/40 
f 72/46/40 38/25/40 51/51/40 
f 72/46/40 51/51/40 50/63/40 
f 72/46/41 50/63/41 8/64/41 
# 140 faces

