# 3ds Max Wavefront OBJ Exporter v0.97b - (c)2007 guruware
# File Created: 04.03.2019 15:35:58

#
# object Hedra001
#

v  0.0000 0.5257 0.8507
v  0.5257 -0.8507 -0.0000
v  0.0000 0.5257 -0.8507
v  -0.8507 -0.0000 0.5257
v  0.8507 0.0000 0.5257
v  -0.5257 -0.8507 -0.0000
v  0.8507 0.0000 -0.5257
v  -0.8507 -0.0000 -0.5257
v  0.5257 0.8507 0.0000
v  -0.0000 -0.5257 0.8507
v  0.0000 -0.5257 -0.8507
v  -0.5257 0.8507 0.0000
# 12 vertices

vn 0.9342 0.3568 -0.0000
vn -0.5774 -0.5774 -0.5774
vn -0.0000 0.9342 0.3568
vn 0.5774 -0.5774 -0.5774
vn -0.9342 0.3568 -0.0000
vn 0.5774 -0.5774 0.5774
vn -0.0000 0.9342 -0.3568
vn -0.5774 -0.5774 0.5774
vn 0.3568 -0.0000 0.9342
vn 0.3568 0.0000 -0.9342
vn 0.0000 -0.9342 -0.3568
vn -0.5774 0.5774 0.5774
vn -0.5774 0.5774 -0.5774
vn 0.9342 -0.3568 0.0000
vn 0.5774 0.5774 0.5774
vn -0.9342 -0.3568 -0.0000
vn 0.0000 -0.9342 0.3568
vn 0.5774 0.5774 -0.5774
vn -0.3568 0.0000 -0.9342
vn -0.3568 0.0000 0.9342
# 20 vertex normals

vt -0.5000 0.3090 0.0000
vt 0.0000 -0.5000 0.3090
vt 0.5000 0.3090 0.0000
vt -0.3090 -0.0000 -0.5000
vt -0.5000 -0.3090 -0.0000
vt 0.5000 -0.3090 0.0000
vt 0.0000 0.5000 0.3090
vt -0.3090 0.0000 0.5000
vt 0.0000 -0.5000 -0.3090
vt 0.3090 0.0000 0.5000
vt -0.5000 0.3090 -0.0000
vt 0.3090 -0.0000 -0.5000
vt 0.5000 0.3090 -0.0000
vt -0.0000 -0.5000 -0.3090
vt -0.0000 -0.5000 0.3090
vt -0.0000 0.5000 0.3090
vt -0.0000 0.5000 -0.3090
vt 0.0000 0.5000 -0.3090
vt -0.5000 -0.3090 0.0000
vt 0.5000 -0.3090 -0.0000
# 20 texture coords

o Hedra001
g Hedra001
f 1/1/1 2/2/1 3/3/1 
f 2/2/2 4/4/2 3/3/2 
f 4/5/3 5/6/3 3/7/3 
f 5/8/4 6/9/4 3/3/4 
f 6/9/5 1/1/5 3/3/5 
f 6/9/6 7/10/6 1/1/6 
f 7/3/7 8/11/7 1/2/7 
f 8/12/8 2/2/8 1/1/8 
f 2/1/9 9/13/9 4/14/9 
f 2/1/10 8/15/10 9/13/10 
f 7/3/11 10/14/11 8/11/11 
f 10/5/12 9/16/12 8/12/12 
f 9/16/13 11/6/13 4/4/13 
f 9/16/14 10/5/14 11/6/14 
f 7/10/15 12/17/15 10/5/15 
f 12/17/16 11/6/16 10/5/16 
f 11/18/17 5/6/17 4/5/17 
f 11/6/18 12/17/18 5/8/18 
f 7/7/19 6/19/19 12/20/19 
f 6/19/20 5/18/20 12/20/20 
# 20 faces

