# 3ds Max Wavefront OBJ Exporter v0.97b - (c)2007 guruware
# File Created: 04.03.2019 15:33:05

#
# object Hedra001
#

v  0.1883 0.9421 -0.2775
v  -0.1883 0.9421 -0.2775
v  -0.1883 0.9421 0.2775
v  0.1883 0.9421 0.2775
v  0.6373 0.7706 -0.0000
v  0.7537 0.5822 -0.3047
v  0.3047 0.7537 -0.5822
v  0.5822 0.3047 -0.7537
v  0.2775 0.1883 -0.9421
v  0.0000 0.6373 -0.7706
v  -0.2775 0.1883 -0.9421
v  -0.5822 0.3047 -0.7537
v  -0.3047 0.7537 -0.5822
v  -0.7537 0.5822 -0.3047
v  -0.6373 0.7706 -0.0000
v  -0.7537 0.5822 0.3047
v  -0.3047 0.7537 0.5822
v  -0.5822 0.3047 0.7537
v  -0.2775 0.1883 0.9421
v  -0.0000 0.6373 0.7706
v  0.2775 0.1883 0.9421
v  0.5822 0.3047 0.7537
v  0.3047 0.7537 0.5822
v  0.7537 0.5822 0.3047
v  0.9421 0.2775 -0.1883
v  0.7706 0.0000 -0.6373
v  0.9421 0.2775 0.1883
v  0.9421 -0.2775 0.1883
v  0.9421 -0.2775 -0.1883
v  0.7706 0.0000 0.6373
v  -0.2775 -0.1883 0.9421
v  0.2775 -0.1883 0.9421
v  0.0000 -0.6373 0.7706
v  0.3047 -0.7537 0.5822
v  0.5822 -0.3047 0.7537
v  0.7537 -0.5822 0.3047
v  0.7537 -0.5822 -0.3047
v  0.5822 -0.3047 -0.7537
v  0.6373 -0.7706 0.0000
v  0.1883 -0.9421 -0.2775
v  0.3047 -0.7537 -0.5822
v  0.1883 -0.9421 0.2775
v  -0.5822 -0.3047 0.7537
v  -0.3047 -0.7537 0.5822
v  -0.7537 -0.5822 0.3047
v  -0.6373 -0.7706 0.0000
v  -0.1883 -0.9421 0.2775
v  -0.1883 -0.9421 -0.2775
v  0.0000 -0.6373 -0.7706
v  0.2775 -0.1883 -0.9421
v  -0.3047 -0.7537 -0.5822
v  -0.5822 -0.3047 -0.7537
v  -0.2775 -0.1883 -0.9421
v  -0.7537 -0.5822 -0.3047
v  -0.7706 -0.0000 0.6373
v  -0.9421 -0.2775 0.1883
v  -0.9421 0.2775 0.1883
v  -0.9421 0.2775 -0.1883
v  -0.9421 -0.2775 -0.1883
v  -0.7706 -0.0000 -0.6373
# 60 vertices

vn 0.0000 1.0000 -0.0000
vn 0.5000 0.8090 -0.3090
vn 0.3090 0.5000 -0.8090
vn -0.3090 0.5000 -0.8090
vn -0.5000 0.8090 -0.3090
vn -0.5000 0.8090 0.3090
vn -0.3090 0.5000 0.8090
vn 0.3090 0.5000 0.8090
vn 0.5000 0.8090 0.3090
vn 0.8090 0.3090 -0.5000
vn 1.0000 0.0000 -0.0000
vn 0.8090 0.3090 0.5000
vn 0.0000 0.0000 1.0000
vn 0.3090 -0.5000 0.8090
vn 0.8090 -0.3090 0.5000
vn 0.8090 -0.3090 -0.5000
vn 0.5000 -0.8090 -0.3090
vn 0.5000 -0.8090 0.3090
vn -0.3090 -0.5000 0.8090
vn -0.5000 -0.8090 0.3090
vn 0.0000 -1.0000 -0.0000
vn 0.3090 -0.5000 -0.8090
vn -0.3090 -0.5000 -0.8090
vn -0.5000 -0.8090 -0.3090
vn -0.8090 -0.3090 0.5000
vn -1.0000 0.0000 -0.0000
vn -0.8090 -0.3090 -0.5000
vn 0.0000 0.0000 -1.0000
vn -0.8090 0.3090 -0.5000
vn -0.8090 0.3090 0.5000
vn 0.3568 0.9342 -0.0000
vn 0.5774 0.5774 -0.5774
vn 0.0000 0.3568 -0.9342
vn -0.5774 0.5774 -0.5774
vn -0.3568 0.9342 -0.0000
vn -0.5774 0.5774 0.5774
vn 0.0000 0.3568 0.9342
vn 0.5774 0.5774 0.5774
vn 0.9342 0.0000 -0.3568
vn 0.9342 0.0000 0.3568
vn 0.0000 -0.3568 0.9342
vn 0.5774 -0.5774 0.5774
vn 0.5774 -0.5774 -0.5774
vn 0.3568 -0.9342 -0.0000
vn -0.5774 -0.5774 0.5774
vn -0.3568 -0.9342 -0.0000
vn 0.0000 -0.3568 -0.9342
vn -0.5774 -0.5774 -0.5774
vn -0.9342 0.0000 0.3568
vn -0.9342 0.0000 -0.3568
vn 0.0000 0.8507 -0.5257
vn 0.0000 0.8507 0.5257
vn 0.8507 0.5257 -0.0000
vn 0.5257 0.0000 0.8507
vn 0.8507 -0.5257 -0.0000
vn 0.0000 -0.8507 0.5257
vn 0.0000 -0.8507 -0.5257
vn -0.8507 -0.5257 0.0000
vn -0.8507 -0.5257 -0.0000
vn -0.5257 0.0000 -0.8507
vn -0.5257 -0.0000 -0.8507
vn -0.8507 0.5257 -0.0000
vn -0.5257 0.0000 0.8507
vn 0.5257 0.0000 -0.8507
# 64 vertex normals

vt 0.1000 0.1473 0.5000
vt -0.1000 0.1473 0.5000
vt -0.1000 -0.1473 0.5000
vt 0.1000 -0.1473 0.5000
vt 0.3383 0.0000 0.4090
vt 0.4000 0.1617 0.3090
vt 0.1617 0.3090 0.4000
vt 0.1617 -0.3090 0.4000
vt 0.4000 -0.1617 0.3090
vt -0.4000 0.1617 0.3090
vt -0.3383 0.0000 0.4090
vt -0.1617 0.3090 0.4000
vt -0.4000 -0.1617 0.3090
vt -0.1617 -0.3090 0.4000
vt 0.1617 -0.3090 -0.4000
vt 0.1000 -0.1473 -0.5000
vt 0.3383 -0.0000 -0.4090
vt 0.4000 -0.1617 -0.3090
vt 0.1000 0.1473 -0.5000
vt 0.1617 0.3090 -0.4000
vt 0.4000 0.1617 -0.3090
vt -0.1000 -0.1473 -0.5000
vt -0.1000 0.1473 -0.5000
vt -0.3383 0.0000 -0.4090
vt -0.4000 0.1617 -0.3090
vt -0.1617 0.3090 -0.4000
vt -0.1617 -0.3090 -0.4000
vt -0.4000 -0.1617 -0.3090
vt -0.3383 -0.0000 -0.4090
vt 0.3090 0.4000 0.1617
vt 0.3090 0.4000 -0.1617
vt 0.3090 -0.4000 -0.1617
vt -0.3090 0.4000 0.1617
vt -0.3090 -0.4000 0.1617
vt -0.3090 -0.4000 -0.1617
vt 0.0000 0.4090 0.3383
vt -0.0000 -0.4090 0.3383
vt 0.0000 0.4090 -0.3383
vt 0.0000 -0.4090 -0.3383
vt -0.0000 -0.4090 -0.3383
# 40 texture coords

o Hedra001
g Hedra001
f 1/1/1 2/2/1 3/3/1 
f 1/1/1 3/3/1 4/4/1 
f 5/5/2 6/6/2 7/7/2 
f 5/5/2 7/7/2 1/1/2 
f 8/7/3 9/1/3 10/5/3 
f 8/7/3 10/5/3 7/6/3 
f 11/4/4 12/8/4 13/9/4 
f 11/4/4 13/9/4 10/5/4 
f 14/10/5 15/11/5 2/2/5 
f 14/10/5 2/2/5 13/12/5 
f 15/11/6 16/13/6 17/14/6 
f 15/11/6 17/14/6 3/3/6 
f 18/15/7 19/16/7 20/17/7 
f 18/15/7 20/17/7 17/18/7 
f 21/19/8 22/20/8 23/21/8 
f 21/19/8 23/21/8 20/17/8 
f 24/9/9 5/5/9 4/4/9 
f 24/9/9 4/4/9 23/8/9 
f 6/7/10 25/1/10 26/5/10 
f 6/7/10 26/5/10 8/6/10 
f 25/1/11 27/2/11 28/3/11 
f 25/1/11 28/3/11 29/4/11 
f 27/2/12 24/12/12 22/10/12 
f 27/2/12 22/10/12 30/11/12 
f 19/16/13 31/22/13 32/23/13 
f 19/16/13 32/23/13 21/19/13 
f 33/24/14 34/25/14 35/26/14 
f 33/24/14 35/26/14 32/23/14 
f 36/14/15 28/3/15 30/11/15 
f 36/14/15 30/11/15 35/13/15 
f 29/4/16 37/8/16 38/9/16 
f 29/4/16 38/9/16 26/5/16 
f 37/21/17 39/17/17 40/19/17 
f 37/21/17 40/19/17 41/20/17 
f 39/17/18 36/18/18 34/15/18 
f 39/17/18 34/15/18 42/16/18 
f 31/22/19 43/27/19 44/28/19 
f 31/22/19 44/28/19 33/24/19 
f 45/28/20 46/29/20 47/22/20 
f 45/28/20 47/22/20 44/27/20 
f 48/23/21 40/19/21 42/16/21 
f 48/23/21 42/16/21 47/22/21 
f 41/10/22 49/11/22 50/2/22 
f 41/10/22 50/2/22 38/12/22 
f 49/11/23 51/13/23 52/14/23 
f 49/11/23 52/14/23 53/3/23 
f 51/26/24 48/23/24 46/29/24 
f 51/26/24 46/29/24 54/25/24 
f 43/28/25 55/29/25 56/22/25 
f 43/28/25 56/22/25 45/27/25 
f 57/23/26 58/19/26 59/16/26 
f 57/23/26 59/16/26 56/22/26 
f 60/17/27 52/18/27 54/15/27 
f 60/17/27 54/15/27 59/16/27 
f 53/3/28 11/4/28 9/1/28 
f 53/3/28 9/1/28 50/2/28 
f 12/21/29 60/17/29 58/19/29 
f 12/21/29 58/19/29 14/20/29 
f 55/29/30 18/25/30 16/26/30 
f 55/29/30 16/26/30 57/23/30 
f 4/4/31 5/5/31 1/1/31 
f 6/30/32 8/7/32 7/6/32 
f 9/1/33 11/4/33 10/5/33 
f 12/21/34 14/20/34 13/31/34 
f 15/11/35 3/3/35 2/2/35 
f 16/32/36 18/15/36 17/18/36 
f 19/16/37 21/19/37 20/17/37 
f 22/10/38 24/12/38 23/33/38 
f 25/1/39 29/4/39 26/5/39 
f 27/2/40 30/11/40 28/3/40 
f 31/22/41 33/24/41 32/23/41 
f 34/34/42 36/14/42 35/13/42 
f 37/21/43 41/20/43 38/31/43 
f 39/17/44 42/16/44 40/19/44 
f 43/28/45 45/27/45 44/35/45 
f 46/29/46 48/23/46 47/22/46 
f 49/11/47 53/3/47 50/2/47 
f 51/32/48 54/15/48 52/18/48 
f 55/29/49 57/23/49 56/22/49 
f 58/19/50 60/17/50 59/16/50 
f 1/1/51 7/7/51 10/36/51 
f 1/1/51 10/36/51 13/12/51 
f 1/1/51 13/12/51 2/2/51 
f 3/3/52 17/14/52 20/37/52 
f 3/3/52 20/37/52 23/8/52 
f 3/3/52 23/8/52 4/4/52 
f 24/12/53 27/2/53 25/1/53 
f 24/12/53 25/1/53 6/7/53 
f 24/12/53 6/7/53 5/36/53 
f 22/20/54 21/19/54 32/23/54 
f 22/20/54 32/23/54 35/26/54 
f 22/20/54 35/26/54 30/38/54 
f 36/14/55 39/37/55 37/8/55 
f 36/14/55 37/8/55 29/4/55 
f 36/14/55 29/4/55 28/3/55 
f 34/15/56 33/39/56 44/27/56 
f 34/15/56 44/27/56 47/22/56 
f 34/15/56 47/22/56 42/16/56 
f 48/23/57 51/26/57 49/38/57 
f 48/23/57 49/38/57 41/20/57 
f 48/23/57 41/20/57 40/19/57 
f 46/40/58 45/27/58 56/22/58 
f 46/40/59 56/22/59 59/16/59 
f 46/40/59 59/16/59 54/15/59 
f 60/37/60 12/8/60 11/4/60 
f 60/37/60 11/4/60 53/3/60 
f 60/37/61 53/3/61 52/14/61 
f 58/19/62 57/23/62 16/26/62 
f 58/19/62 16/26/62 15/38/62 
f 58/19/62 15/38/62 14/20/62 
f 55/40/63 43/27/63 31/22/63 
f 55/40/63 31/22/63 19/16/63 
f 55/40/63 19/16/63 18/15/63 
f 9/1/64 8/7/64 26/36/64 
f 9/1/64 26/36/64 38/12/64 
f 9/1/64 38/12/64 50/2/64 
# 116 faces

