# 3ds Max Wavefront OBJ Exporter v0.97b - (c)2007 guruware
# File Created: 04.03.2019 15:27:51

#
# object Hedra001
#

v  0.0000 0.9239 0.3827
v  0.3827 0.6533 0.6533
v  0.9239 0.2706 0.2706
v  0.9239 0.2706 -0.2706
v  0.3827 0.6533 -0.6533
v  0.0000 0.9239 -0.3827
v  0.9239 -0.2706 -0.2706
v  0.3827 -0.6533 -0.6533
v  0.0000 -0.3827 -0.9239
v  0.0000 0.3827 -0.9239
v  -0.3827 -0.6533 -0.6533
v  -0.9239 -0.2706 -0.2706
v  -0.9239 0.2706 -0.2706
v  -0.3827 0.6533 -0.6533
v  -0.9239 0.2706 0.2706
v  -0.3827 0.6533 0.6533
v  -0.9239 -0.2706 0.2706
v  -0.3827 -0.6533 0.6533
v  -0.0000 -0.3827 0.9239
v  -0.0000 0.3827 0.9239
v  0.3827 -0.6533 0.6533
v  0.9239 -0.2706 0.2706
v  0.0000 -0.9239 0.3827
v  0.0000 -0.9239 -0.3827
# 24 vertices

vn 0.5774 0.8165 -0.0000
vn 0.5774 0.8165 0.0000
vn 0.5774 0.0000 -0.8165
vn 0.5774 -0.0000 -0.8165
vn -0.5774 0.0000 -0.8165
vn -0.5774 -0.0000 -0.8165
vn -0.5774 0.8165 -0.0000
vn -0.5774 0.8165 0.0000
vn -0.5774 0.0000 0.8165
vn -0.5774 -0.0000 0.8165
vn 0.5774 0.0000 0.8165
vn 0.5774 -0.0000 0.8165
vn 0.5774 -0.8165 -0.0000
vn 0.5774 -0.8165 0.0000
vn -0.5774 -0.8165 -0.0000
vn -0.5774 -0.8165 0.0000
vn 0.0000 0.7071 -0.7071
vn 0.0000 0.7071 0.7071
vn 1.0000 0.0000 -0.0000
vn 0.0000 -0.7071 0.7071
vn -0.0000 -0.7071 0.7071
vn 0.0000 -0.7071 -0.7071
vn -0.0000 -0.7071 -0.7071
vn -1.0000 0.0000 -0.0000
# 24 vertex normals

vt 0.0000 -0.2071 0.5000
vt 0.2071 -0.3536 0.3536
vt 0.5000 -0.1464 0.1464
vt 0.5000 0.1464 0.1464
vt 0.2071 0.3536 0.3536
vt 0.0000 0.2071 0.5000
vt 0.1464 0.5000 0.1464
vt -0.1464 0.5000 0.1464
vt -0.3536 0.2071 0.3536
vt -0.2071 0.0000 0.5000
vt 0.2071 0.0000 0.5000
vt 0.3536 0.2071 0.3536
vt -0.3536 -0.2071 0.3536
vt -0.1464 -0.5000 0.1464
vt 0.1464 -0.5000 0.1464
vt 0.3536 -0.2071 0.3536
vt -0.5000 0.1464 0.1464
vt -0.5000 -0.1464 0.1464
vt -0.2071 -0.3536 0.3536
vt -0.2071 0.3536 0.3536
vt 0.1464 -0.5000 -0.1464
vt -0.1464 -0.5000 -0.1464
vt -0.3536 -0.2071 -0.3536
vt -0.2071 -0.0000 -0.5000
vt 0.2071 -0.0000 -0.5000
vt 0.3536 -0.2071 -0.3536
vt -0.3536 0.2071 -0.3536
vt -0.1464 0.5000 -0.1464
vt 0.1464 0.5000 -0.1464
vt 0.3536 0.2071 -0.3536
vt 0.5000 0.1464 -0.1464
vt 0.5000 -0.1464 -0.1464
vt 0.2071 -0.3536 -0.3536
vt 0.0000 -0.2071 -0.5000
vt 0.0000 0.2071 -0.5000
vt 0.2071 0.3536 -0.3536
vt -0.5000 -0.1464 -0.1464
vt -0.5000 0.1464 -0.1464
vt -0.2071 0.3536 -0.3536
vt -0.2071 -0.3536 -0.3536
vt -0.1464 0.1464 0.5000
vt -0.1464 -0.1464 0.5000
vt 0.1464 -0.1464 0.5000
vt 0.1464 0.1464 0.5000
vt -0.5000 0.0000 -0.2071
vt -0.5000 0.0000 0.2071
vt -0.1464 -0.1464 -0.5000
vt -0.1464 0.1464 -0.5000
vt 0.1464 0.1464 -0.5000
vt 0.1464 -0.1464 -0.5000
# 50 texture coords

o Hedra001
g Hedra001
f 1/1/1 2/2/1 3/3/1 
f 1/1/1 3/3/1 4/4/1 
f 1/1/2 4/4/2 5/5/2 
f 1/1/1 5/5/1 6/6/1 
f 4/7/3 7/8/3 8/9/3 
f 4/7/3 8/9/3 9/10/3 
f 4/7/3 9/10/3 10/11/3 
f 4/7/4 10/11/4 5/12/4 
f 9/10/5 11/13/5 12/14/5 
f 9/10/5 12/14/5 13/15/5 
f 9/10/6 13/15/6 14/16/6 
f 9/10/5 14/16/5 10/11/5 
f 13/17/7 15/18/7 16/19/7 
f 13/17/7 16/19/7 1/1/7 
f 13/17/7 1/1/7 6/6/7 
f 13/17/8 6/6/8 14/20/8 
f 15/21/9 17/22/9 18/23/9 
f 15/21/9 18/23/9 19/24/9 
f 15/21/10 19/24/10 20/25/10 
f 15/21/10 20/25/10 16/26/10 
f 19/24/11 21/27/11 22/28/11 
f 19/24/11 22/28/11 3/29/11 
f 19/24/12 3/29/12 2/30/12 
f 19/24/11 2/30/11 20/25/11 
f 7/31/13 22/32/13 21/33/13 
f 7/31/13 21/33/13 23/34/13 
f 7/31/14 23/34/14 24/35/14 
f 7/31/14 24/35/14 8/36/14 
f 17/37/15 12/38/15 11/39/15 
f 17/37/16 11/39/16 24/35/16 
f 17/37/15 24/35/15 23/34/15 
f 17/37/15 23/34/15 18/40/15 
f 5/12/17 10/11/17 14/16/17 
f 5/5/17 14/20/17 6/6/17 
f 16/26/18 20/25/18 2/30/18 
f 16/19/18 2/2/18 1/1/18 
f 3/41/19 22/42/19 7/43/19 
f 3/41/19 7/43/19 4/44/19 
f 19/24/20 18/23/20 23/45/20 
f 19/24/21 23/45/21 21/27/21 
f 24/46/22 11/13/22 9/10/22 
f 24/46/23 9/10/23 8/9/23 
f 17/47/24 15/48/24 13/49/24 
f 17/47/24 13/49/24 12/50/24 
# 44 faces

