# 3ds Max Wavefront OBJ Exporter v0.97b - (c)2007 guruware
# File Created: 04.03.2019 16:23:06

#
# object Torus_Knot001
#

v  1.0859 0.7323 0.0001
v  1.3403 0.6962 -0.7504
v  1.3853 0.9313 -0.9209
v  1.0848 0.9756 0.1650
v  1.1235 1.0473 -0.9868
v  0.8409 1.1270 0.1018
v  0.9165 0.8839 -0.8569
v  0.6913 0.9772 -0.1020
v  1.0505 0.6670 -0.7108
v  0.8427 0.7333 -0.1649
v  0.6730 -0.6362 -1.4192
v  0.6229 -0.6054 -1.7071
v  0.3958 -0.4218 -1.7406
v  0.3056 -0.3392 -1.4733
v  0.4770 -0.4717 -1.2747
v  -0.2008 -1.1776 -0.8751
v  -0.4439 -1.2251 -1.0332
v  -0.5253 -0.9696 -1.1536
v  -0.3324 -0.7643 -1.0698
v  -0.1318 -0.8928 -0.8977
v  -0.5586 -0.7407 -0.2311
v  -0.8081 -0.6692 -0.3690
v  -0.7429 -0.4750 -0.5798
v  -0.4532 -0.4264 -0.5720
v  -0.3393 -0.5906 -0.3565
v  -0.6250 -0.1387 0.2080
v  -0.8628 -0.0428 0.0643
v  -0.7719 0.1122 -0.1683
v  -0.4781 0.1122 -0.1683
v  -0.3872 -0.0429 0.0643
v  -0.6023 0.4200 0.6122
v  -0.8216 0.5703 0.4868
v  -0.7075 0.7345 0.2714
v  -0.4178 0.6857 0.2637
v  -0.3528 0.4914 0.4743
v  -0.4531 0.8342 1.1366
v  -0.5215 1.1191 1.1143
v  -0.3209 1.2476 0.9422
v  -0.1285 1.0420 0.8581
v  -0.2102 0.7865 0.9782
v  0.3166 0.3536 1.6268
v  0.5131 0.5176 1.7713
v  0.6843 0.6502 1.5726
v  0.5937 0.5681 1.3054
v  0.3665 0.3847 1.3388
v  0.9862 -0.9941 0.9398
v  1.2760 -1.0237 0.9790
v  1.4099 -0.8065 0.8331
v  1.2030 -0.6427 0.7039
v  0.9411 -0.7586 0.7698
v  0.7323 -1.0859 -0.0001
v  0.9755 -1.0846 -0.1652
v  1.1269 -0.8408 -0.1020
v  0.9773 -0.6914 0.1022
v  0.7335 -0.8428 0.1651
v  0.3607 -0.5396 -0.4855
v  0.6071 -0.4556 -0.6219
v  0.7576 -0.2819 -0.4388
v  0.6043 -0.2585 -0.1892
v  0.3590 -0.4178 -0.2180
v  0.0179 0.0548 -0.7075
v  0.2562 0.1600 -0.8436
v  0.4115 0.3151 -0.6481
v  0.2691 0.3058 -0.3912
v  0.0259 0.1450 -0.4278
v  -0.3724 0.5864 -0.8889
v  -0.1788 0.7787 -0.9979
v  -0.0785 0.9426 -0.7755
v  -0.2102 0.8515 -0.5291
v  -0.3918 0.6314 -0.5991
v  -1.0254 0.8433 -0.9198
v  -1.0929 1.1293 -0.9260
v  -1.0370 1.2416 -0.6602
v  -0.9350 1.0250 -0.4897
v  -0.9278 0.7789 -0.6502
v  -1.6667 -0.1387 -0.2080
v  -1.9044 -0.0431 -0.0641
v  -1.8136 0.1121 0.1684
v  -1.5197 0.1123 0.1682
v  -1.4289 -0.0427 -0.0644
v  -0.9817 -1.1640 0.5386
v  -1.0787 -1.2285 0.8084
v  -1.0720 -0.9822 0.9687
v  -0.9707 -0.7655 0.7979
v  -0.9149 -0.8778 0.5321
v  -0.1200 -0.9298 0.6275
v  -0.1007 -0.8845 0.9172
v  -0.2826 -0.6645 0.9871
v  -0.4144 -0.5739 0.7405
v  -0.3139 -0.7378 0.5183
v  0.3744 -0.3374 0.4998
v  0.3664 -0.2472 0.7794
v  0.1231 -0.0865 0.8161
v  -0.0193 -0.0773 0.5592
v  0.1360 -0.2324 0.3637
v  0.7148 0.2418 0.2959
v  0.7165 0.3636 0.5633
v  0.4712 0.5229 0.5922
v  0.3178 0.4994 0.3425
v  0.4684 0.3257 0.1594
# 100 vertices

vn 0.7708 -0.6207 0.1434
vn 0.8482 -0.4581 0.2660
vn 0.8546 0.4101 -0.3186
vn 0.7136 0.4055 0.5713
vn -0.0304 0.8405 -0.5409
vn -0.1552 0.9292 0.3354
vn -0.9207 0.3693 -0.1264
vn -0.8515 0.4180 -0.3167
vn -0.3934 -0.7407 0.5446
vn -0.4025 -0.7803 -0.4787
vn 0.7163 -0.6556 0.2390
vn 0.4658 -0.4566 -0.7580
vn -0.3037 0.2044 -0.9306
vn -0.7513 0.6595 0.0258
vn -0.0028 0.0378 0.9993
vn 0.4228 -0.8146 0.3972
vn -0.3959 -0.8946 -0.2073
vn -0.7611 -0.0476 -0.6469
vn -0.2753 0.9385 -0.2083
vn 0.6647 0.3299 0.6703
vn 0.0517 -0.7163 0.6958
vn -0.8808 -0.4448 0.1622
vn -0.6998 0.3585 -0.6179
vn 0.4928 0.6552 -0.5726
vn 0.9485 -0.0953 0.3020
vn -0.0228 -0.5873 0.8091
vn -0.9532 -0.1773 0.2450
vn -0.6024 0.4685 -0.6462
vn 0.5725 0.4821 -0.6632
vn 0.9488 -0.1858 0.2555
vn -0.1475 -0.6478 0.7474
vn -0.9623 0.0576 0.2657
vn -0.5020 0.6898 -0.5216
vn 0.6038 0.5006 -0.6203
vn 0.9203 -0.3573 0.1595
vn -0.6371 -0.5043 0.5828
vn -0.6763 0.5503 0.4897
vn 0.0103 0.9936 -0.1128
vn 0.6981 0.3604 -0.6187
vn 0.2764 -0.9040 -0.3262
vn -0.6289 -0.5172 0.5805
vn 0.1002 0.1493 0.9837
vn 0.6951 0.6454 0.3167
vn 0.4869 0.4249 -0.7631
vn -0.5326 -0.4912 -0.6893
vn -0.5434 -0.7316 0.4117
vn 0.4776 -0.7205 0.5028
vn 0.9991 0.0154 0.0383
vn 0.3584 0.7811 -0.5113
vn -0.9385 0.2277 -0.2594
vn -0.5819 -0.8132 -0.0113
vn 0.3202 -0.7759 -0.5436
vn 0.9021 0.0966 -0.4205
vn 0.2618 0.9433 0.2041
vn -0.8333 0.2027 0.5143
vn -0.6514 -0.6582 -0.3773
vn 0.2964 -0.3264 -0.8976
vn 0.8849 0.4047 -0.2306
vn 0.2584 0.5518 0.7929
vn -0.7257 -0.1518 0.6711
vn -0.6873 -0.5849 -0.4307
vn 0.2496 -0.1182 -0.9611
vn 0.8310 0.5178 -0.2031
vn 0.2932 0.4854 0.8237
vn -0.6723 -0.2068 0.7108
vn -0.4254 -0.6755 -0.6023
vn 0.2364 0.2143 -0.9477
vn 0.5732 0.8110 -0.1173
vn 0.1806 0.4740 0.8618
vn -0.4837 -0.5426 0.6868
vn -0.1813 -0.4408 -0.8791
vn -0.4000 0.5603 -0.7253
vn -0.2000 0.9645 0.1723
vn 0.2740 0.3425 0.8987
vn 0.4207 -0.8782 0.2275
vn -0.1761 -0.5794 -0.7958
vn -0.9640 -0.1536 -0.2169
vn -0.6851 0.4237 0.5925
vn 0.4469 0.5259 0.7237
vn 0.9276 -0.2166 -0.3044
vn 0.0086 -0.7813 -0.6241
vn -0.3433 -0.8825 0.3214
vn -0.3506 -0.0815 0.9330
vn 0.1179 0.8620 0.4930
vn 0.4887 0.3190 -0.8120
vn 0.4591 -0.7738 -0.4364
vn 0.4901 -0.6026 0.6298
vn -0.1084 0.2598 0.9596
vn -0.5819 0.8116 -0.0517
vn -0.1777 0.0249 -0.9838
vn 0.6943 -0.6126 -0.3777
vn 0.6625 -0.2415 0.7091
vn -0.2638 0.4347 0.8611
vn -0.8483 0.5000 -0.1746
vn -0.2303 -0.1734 -0.9575
vn 0.7174 -0.6063 -0.3431
vn 0.7159 -0.0468 0.6966
vn -0.2177 0.5905 0.7771
vn -0.8503 0.4978 -0.1709
vn -0.3023 -0.2547 -0.9186
# 100 vertex normals

vt 0.0000 0.0000 0.0000
vt 0.0500 0.0000 0.0000
vt 0.0500 0.2000 0.0000
vt 0.0000 0.2000 0.0000
vt 0.0500 0.4000 0.0000
vt 0.0000 0.4000 0.0000
vt 0.0500 0.6000 0.0000
vt 0.0000 0.6000 0.0000
vt 0.0500 0.8000 0.0000
vt 0.0000 0.8000 0.0000
vt 0.0500 1.0000 0.0000
vt 0.0000 1.0000 0.0000
vt 0.1000 0.0000 0.0000
vt 0.1000 0.2000 0.0000
vt 0.1000 0.4000 0.0000
vt 0.1000 0.6000 0.0000
vt 0.1000 0.8000 0.0000
vt 0.1000 1.0000 0.0000
vt 0.1500 0.0000 0.0000
vt 0.1500 0.2000 0.0000
vt 0.1500 0.4000 0.0000
vt 0.1500 0.6000 0.0000
vt 0.1500 0.8000 0.0000
vt 0.1500 1.0000 0.0000
vt 0.2000 0.0000 0.0000
vt 0.2000 0.2000 0.0000
vt 0.2000 0.4000 0.0000
vt 0.2000 0.6000 0.0000
vt 0.2000 0.8000 0.0000
vt 0.2000 1.0000 0.0000
vt 0.2500 0.0000 0.0000
vt 0.2500 0.2000 0.0000
vt 0.2500 0.4000 0.0000
vt 0.2500 0.6000 0.0000
vt 0.2500 0.8000 0.0000
vt 0.2500 1.0000 0.0000
vt 0.3000 0.0000 0.0000
vt 0.3000 0.2000 0.0000
vt 0.3000 0.4000 0.0000
vt 0.3000 0.6000 0.0000
vt 0.3000 0.8000 0.0000
vt 0.3000 1.0000 0.0000
vt 0.3500 0.0000 0.0000
vt 0.3500 0.2000 0.0000
vt 0.3500 0.4000 0.0000
vt 0.3500 0.6000 0.0000
vt 0.3500 0.8000 0.0000
vt 0.3500 1.0000 0.0000
vt 0.4000 0.0000 0.0000
vt 0.4000 0.2000 0.0000
vt 0.4000 0.4000 0.0000
vt 0.4000 0.6000 0.0000
vt 0.4000 0.8000 0.0000
vt 0.4000 1.0000 0.0000
vt 0.4500 0.0000 0.0000
vt 0.4500 0.2000 0.0000
vt 0.4500 0.4000 0.0000
vt 0.4500 0.6000 0.0000
vt 0.4500 0.8000 0.0000
vt 0.4500 1.0000 0.0000
vt 0.5000 0.0000 0.0000
vt 0.5000 0.2000 0.0000
vt 0.5000 0.4000 0.0000
vt 0.5000 0.6000 0.0000
vt 0.5000 0.8000 0.0000
vt 0.5000 1.0000 0.0000
vt 0.5500 0.0000 0.0000
vt 0.5500 0.2000 0.0000
vt 0.5500 0.4000 0.0000
vt 0.5500 0.6000 0.0000
vt 0.5500 0.8000 0.0000
vt 0.5500 1.0000 0.0000
vt 0.6000 0.0000 0.0000
vt 0.6000 0.2000 0.0000
vt 0.6000 0.4000 0.0000
vt 0.6000 0.6000 0.0000
vt 0.6000 0.8000 0.0000
vt 0.6000 1.0000 0.0000
vt 0.6500 0.0000 0.0000
vt 0.6500 0.2000 0.0000
vt 0.6500 0.4000 0.0000
vt 0.6500 0.6000 0.0000
vt 0.6500 0.8000 0.0000
vt 0.6500 1.0000 0.0000
vt 0.7000 0.0000 0.0000
vt 0.7000 0.2000 0.0000
vt 0.7000 0.4000 0.0000
vt 0.7000 0.6000 0.0000
vt 0.7000 0.8000 0.0000
vt 0.7000 1.0000 0.0000
vt 0.7500 0.0000 0.0000
vt 0.7500 0.2000 0.0000
vt 0.7500 0.4000 0.0000
vt 0.7500 0.6000 0.0000
vt 0.7500 0.8000 0.0000
vt 0.7500 1.0000 0.0000
vt 0.8000 0.0000 0.0000
vt 0.8000 0.2000 0.0000
vt 0.8000 0.4000 0.0000
vt 0.8000 0.6000 0.0000
vt 0.8000 0.8000 0.0000
vt 0.8000 1.0000 0.0000
vt 0.8500 0.0000 0.0000
vt 0.8500 0.2000 0.0000
vt 0.8500 0.4000 0.0000
vt 0.8500 0.6000 0.0000
vt 0.8500 0.8000 0.0000
vt 0.8500 1.0000 0.0000
vt 0.9000 0.0000 0.0000
vt 0.9000 0.2000 0.0000
vt 0.9000 0.4000 0.0000
vt 0.9000 0.6000 0.0000
vt 0.9000 0.8000 0.0000
vt 0.9000 1.0000 0.0000
vt 0.9500 0.0000 0.0000
vt 0.9500 0.2000 0.0000
vt 0.9500 0.4000 0.0000
vt 0.9500 0.6000 0.0000
vt 0.9500 0.8000 0.0000
vt 0.9500 1.0000 0.0000
vt 1.0000 0.0000 0.0000
vt 1.0000 0.2000 0.0000
vt 1.0000 0.4000 0.0000
vt 1.0000 0.6000 0.0000
vt 1.0000 0.8000 0.0000
vt 1.0000 1.0000 0.0000
# 126 texture coords

o Torus_Knot001
g Torus_Knot001
f 1/1/1 2/2/2 3/3/3 
f 1/1/1 3/3/3 4/4/4 
f 4/4/4 3/3/3 5/5/5 
f 4/4/4 5/5/5 6/6/6 
f 6/6/6 5/5/5 7/7/7 
f 6/6/6 7/7/7 8/8/8 
f 8/8/8 7/7/7 9/9/9 
f 8/8/8 9/9/9 10/10/10 
f 10/10/10 9/9/9 2/11/2 
f 10/10/10 2/11/2 1/12/1 
f 2/2/2 11/13/11 12/14/12 
f 2/2/2 12/14/12 3/3/3 
f 3/3/3 12/14/12 13/15/13 
f 3/3/3 13/15/13 5/5/5 
f 5/5/5 13/15/13 14/16/14 
f 5/5/5 14/16/14 7/7/7 
f 7/7/7 14/16/14 15/17/15 
f 7/7/7 15/17/15 9/9/9 
f 9/9/9 15/17/15 11/18/11 
f 9/9/9 11/18/11 2/11/2 
f 11/13/11 16/19/16 17/20/17 
f 11/13/11 17/20/17 12/14/12 
f 12/14/12 17/20/17 18/21/18 
f 12/14/12 18/21/18 13/15/13 
f 13/15/13 18/21/18 19/22/19 
f 13/15/13 19/22/19 14/16/14 
f 14/16/14 19/22/19 20/23/20 
f 14/16/14 20/23/20 15/17/15 
f 15/17/15 20/23/20 16/24/16 
f 15/17/15 16/24/16 11/18/11 
f 16/19/16 21/25/21 22/26/22 
f 16/19/16 22/26/22 17/20/17 
f 17/20/17 22/26/22 23/27/23 
f 17/20/17 23/27/23 18/21/18 
f 18/21/18 23/27/23 24/28/24 
f 18/21/18 24/28/24 19/22/19 
f 19/22/19 24/28/24 25/29/25 
f 19/22/19 25/29/25 20/23/20 
f 20/23/20 25/29/25 21/30/21 
f 20/23/20 21/30/21 16/24/16 
f 21/25/21 26/31/26 27/32/27 
f 21/25/21 27/32/27 22/26/22 
f 22/26/22 27/32/27 28/33/28 
f 22/26/22 28/33/28 23/27/23 
f 23/27/23 28/33/28 29/34/29 
f 23/27/23 29/34/29 24/28/24 
f 24/28/24 29/34/29 30/35/30 
f 24/28/24 30/35/30 25/29/25 
f 25/29/25 30/35/30 26/36/26 
f 25/29/25 26/36/26 21/30/21 
f 26/31/26 31/37/31 32/38/32 
f 26/31/26 32/38/32 27/32/27 
f 27/32/27 32/38/32 33/39/33 
f 27/32/27 33/39/33 28/33/28 
f 28/33/28 33/39/33 34/40/34 
f 28/33/28 34/40/34 29/34/29 
f 29/34/29 34/40/34 35/41/35 
f 29/34/29 35/41/35 30/35/30 
f 30/35/30 35/41/35 31/42/31 
f 30/35/30 31/42/31 26/36/26 
f 31/37/31 36/43/36 37/44/37 
f 31/37/31 37/44/37 32/38/32 
f 32/38/32 37/44/37 38/45/38 
f 32/38/32 38/45/38 33/39/33 
f 33/39/33 38/45/38 39/46/39 
f 33/39/33 39/46/39 34/40/34 
f 34/40/34 39/46/39 40/47/40 
f 34/40/34 40/47/40 35/41/35 
f 35/41/35 40/47/40 36/48/36 
f 35/41/35 36/48/36 31/42/31 
f 36/43/36 41/49/41 42/50/42 
f 36/43/36 42/50/42 37/44/37 
f 37/44/37 42/50/42 43/51/43 
f 37/44/37 43/51/43 38/45/38 
f 38/45/38 43/51/43 44/52/44 
f 38/45/38 44/52/44 39/46/39 
f 39/46/39 44/52/44 45/53/45 
f 39/46/39 45/53/45 40/47/40 
f 40/47/40 45/53/45 41/54/41 
f 40/47/40 41/54/41 36/48/36 
f 41/49/41 46/55/46 47/56/47 
f 41/49/41 47/56/47 42/50/42 
f 42/50/42 47/56/47 48/57/48 
f 42/50/42 48/57/48 43/51/43 
f 43/51/43 48/57/48 49/58/49 
f 43/51/43 49/58/49 44/52/44 
f 44/52/44 49/58/49 50/59/50 
f 44/52/44 50/59/50 45/53/45 
f 45/53/45 50/59/50 46/60/46 
f 45/53/45 46/60/46 41/54/41 
f 46/55/46 51/61/51 52/62/52 
f 46/55/46 52/62/52 47/56/47 
f 47/56/47 52/62/52 53/63/53 
f 47/56/47 53/63/53 48/57/48 
f 48/57/48 53/63/53 54/64/54 
f 48/57/48 54/64/54 49/58/49 
f 49/58/49 54/64/54 55/65/55 
f 49/58/49 55/65/55 50/59/50 
f 50/59/50 55/65/55 51/66/51 
f 50/59/50 51/66/51 46/60/46 
f 51/61/51 56/67/56 57/68/57 
f 51/61/51 57/68/57 52/62/52 
f 52/62/52 57/68/57 58/69/58 
f 52/62/52 58/69/58 53/63/53 
f 53/63/53 58/69/58 59/70/59 
f 53/63/53 59/70/59 54/64/54 
f 54/64/54 59/70/59 60/71/60 
f 54/64/54 60/71/60 55/65/55 
f 55/65/55 60/71/60 56/72/56 
f 55/65/55 56/72/56 51/66/51 
f 56/67/56 61/73/61 62/74/62 
f 56/67/56 62/74/62 57/68/57 
f 57/68/57 62/74/62 63/75/63 
f 57/68/57 63/75/63 58/69/58 
f 58/69/58 63/75/63 64/76/64 
f 58/69/58 64/76/64 59/70/59 
f 59/70/59 64/76/64 65/77/65 
f 59/70/59 65/77/65 60/71/60 
f 60/71/60 65/77/65 61/78/61 
f 60/71/60 61/78/61 56/72/56 
f 61/73/61 66/79/66 67/80/67 
f 61/73/61 67/80/67 62/74/62 
f 62/74/62 67/80/67 68/81/68 
f 62/74/62 68/81/68 63/75/63 
f 63/75/63 68/81/68 69/82/69 
f 63/75/63 69/82/69 64/76/64 
f 64/76/64 69/82/69 70/83/70 
f 64/76/64 70/83/70 65/77/65 
f 65/77/65 70/83/70 66/84/66 
f 65/77/65 66/84/66 61/78/61 
f 66/79/66 71/85/71 72/86/72 
f 66/79/66 72/86/72 67/80/67 
f 67/80/67 72/86/72 73/87/73 
f 67/80/67 73/87/73 68/81/68 
f 68/81/68 73/87/73 74/88/74 
f 68/81/68 74/88/74 69/82/69 
f 69/82/69 74/88/74 75/89/75 
f 69/82/69 75/89/75 70/83/70 
f 70/83/70 75/89/75 71/90/71 
f 70/83/70 71/90/71 66/84/66 
f 71/85/71 76/91/76 77/92/77 
f 71/85/71 77/92/77 72/86/72 
f 72/86/72 77/92/77 78/93/78 
f 72/86/72 78/93/78 73/87/73 
f 73/87/73 78/93/78 79/94/79 
f 73/87/73 79/94/79 74/88/74 
f 74/88/74 79/94/79 80/95/80 
f 74/88/74 80/95/80 75/89/75 
f 75/89/75 80/95/80 76/96/76 
f 75/89/75 76/96/76 71/90/71 
f 76/91/76 81/97/81 82/98/82 
f 76/91/76 82/98/82 77/92/77 
f 77/92/77 82/98/82 83/99/83 
f 77/92/77 83/99/83 78/93/78 
f 78/93/78 83/99/83 84/100/84 
f 78/93/78 84/100/84 79/94/79 
f 79/94/79 84/100/84 85/101/85 
f 79/94/79 85/101/85 80/95/80 
f 80/95/80 85/101/85 81/102/81 
f 80/95/80 81/102/81 76/96/76 
f 81/97/81 86/103/86 87/104/87 
f 81/97/81 87/104/87 82/98/82 
f 82/98/82 87/104/87 88/105/88 
f 82/98/82 88/105/88 83/99/83 
f 83/99/83 88/105/88 89/106/89 
f 83/99/83 89/106/89 84/100/84 
f 84/100/84 89/106/89 90/107/90 
f 84/100/84 90/107/90 85/101/85 
f 85/101/85 90/107/90 86/108/86 
f 85/101/85 86/108/86 81/102/81 
f 86/103/86 91/109/91 92/110/92 
f 86/103/86 92/110/92 87/104/87 
f 87/104/87 92/110/92 93/111/93 
f 87/104/87 93/111/93 88/105/88 
f 88/105/88 93/111/93 94/112/94 
f 88/105/88 94/112/94 89/106/89 
f 89/106/89 94/112/94 95/113/95 
f 89/106/89 95/113/95 90/107/90 
f 90/107/90 95/113/95 91/114/91 
f 90/107/90 91/114/91 86/108/86 
f 91/109/91 96/115/96 97/116/97 
f 91/109/91 97/116/97 92/110/92 
f 92/110/92 97/116/97 98/117/98 
f 92/110/92 98/117/98 93/111/93 
f 93/111/93 98/117/98 99/118/99 
f 93/111/93 99/118/99 94/112/94 
f 94/112/94 99/118/99 100/119/100 
f 94/112/94 100/119/100 95/113/95 
f 95/113/95 100/119/100 96/120/96 
f 95/113/95 96/120/96 91/114/91 
f 96/115/96 1/121/1 4/122/4 
f 96/115/96 4/122/4 97/116/97 
f 97/116/97 4/122/4 6/123/6 
f 97/116/97 6/123/6 98/117/98 
f 98/117/98 6/123/6 8/124/8 
f 98/117/98 8/124/8 99/118/99 
f 99/118/99 8/124/8 10/125/10 
f 99/118/99 10/125/10 100/119/100 
f 100/119/100 10/125/10 1/126/1 
f 100/119/100 1/126/1 96/120/96 
# 200 faces

